<?xml version="1.0" encoding="UTF-8" standalone="no"?>
<!-- Created with Inkscape (http://www.inkscape.org/) -->

<svg
   width="206.96481mm"
   height="47.562256mm"
   viewBox="0 0 206.96481 47.562256"
   version="1.1"
   id="svg5"
   xmlns="http://www.w3.org/2000/svg"
   xmlns:svg="http://www.w3.org/2000/svg">
  <defs
     id="defs2">
    <rect
       x="1497.5612"
       y="578.18878"
       width="385.4592"
       height="235.70309"
       id="rect2434" />
    <rect
       x="212.263"
       y="378.94806"
       width="471.40619"
       height="631.58008"
       id="rect2939" />
    <rect
       x="212.263"
       y="378.94806"
       width="471.40619"
       height="631.58008"
       id="rect2971" />
    <rect
       x="1497.5612"
       y="578.18878"
       width="385.4592"
       height="235.70309"
       id="rect2991" />
    <rect
       x="212.263"
       y="378.94806"
       width="471.40619"
       height="631.58008"
       id="rect3014" />
    <rect
       x="1497.5612"
       y="578.18878"
       width="385.4592"
       height="235.70309"
       id="rect3034" />
    <rect
       x="212.263"
       y="378.94806"
       width="471.40619"
       height="631.58008"
       id="rect3054" />
    <rect
       x="1497.5612"
       y="578.18878"
       width="385.4592"
       height="235.70309"
       id="rect3074" />
  </defs>
  <g
     id="layer1"
     transform="translate(-351.89931,-45.15384)">
    <g
       id="g4025">
      <g
         aria-label="Velox Data"
         transform="matrix(0.26458333,0,0,0.26458333,-76.045624,-90.616011)"
         id="text2432"
         style="font-size:28px;line-height:207.231px;font-family:Arial;-inkscape-font-specification:'Arial, Normal';text-align:center;text-anchor:middle;white-space:pre;shape-inside:url(#rect2434);display:inline;stroke:#000000;stroke-width:4.62159">
        <path
           d="m 1630.4688,689.52608 -7.7657,-20.04297 h 2.8711 l 5.209,14.56055 q 0.6289,1.75 1.0527,3.28125 0.4649,-1.64063 1.0801,-3.28125 l 5.4141,-14.56055 h 2.707 l -7.8476,20.04297 z"
           style="stroke-width:0.189063"
           id="path5208" />
        <path
           d="m 1651.4961,684.8503 2.543,0.31445 q -0.6016,2.22852 -2.2286,3.45899 -1.6269,1.23046 -4.1562,1.23046 -3.1855,0 -5.0586,-1.95507 -1.8594,-1.96875 -1.8594,-5.50977 0,-3.66406 1.8867,-5.6875 1.8868,-2.02344 4.8946,-2.02344 2.9121,0 4.7578,1.98242 1.8457,1.98243 1.8457,5.57813 0,0.21875 -0.014,0.65625 h -10.8281 q 0.1367,2.39258 1.3535,3.66406 1.2168,1.27149 3.0352,1.27149 1.3535,0 2.3105,-0.71094 0.957,-0.71094 1.5176,-2.26953 z m -8.0801,-3.97852 h 8.1074 q -0.164,-1.83203 -0.9296,-2.74804 -1.1758,-1.42188 -3.0489,-1.42188 -1.6953,0 -2.8574,1.13477 -1.1484,1.13476 -1.2715,3.03515 z"
           style="stroke-width:0.189063"
           id="path5210" />
        <path
           d="m 1657.0742,689.52608 v -20.04297 h 2.461 v 20.04297 z"
           style="stroke-width:0.189063"
           id="path5212" />
        <path
           d="m 1662.4336,682.26631 q 0,-4.0332 2.2422,-5.97461 1.873,-1.61328 4.5664,-1.61328 2.9941,0 4.8945,1.96875 1.9004,1.95508 1.9004,5.41407 0,2.80273 -0.8476,4.41601 -0.834,1.59961 -2.4473,2.48828 -1.5996,0.88867 -3.5,0.88867 -3.0488,0 -4.9356,-1.95507 -1.873,-1.95508 -1.873,-5.63282 z m 2.5293,0 q 0,2.78907 1.2168,4.1836 1.2168,1.38086 3.0625,1.38086 1.832,0 3.0488,-1.39453 1.2168,-1.39454 1.2168,-4.25196 0,-2.69336 -1.2305,-4.07422 -1.2168,-1.39453 -3.0351,-1.39453 -1.8457,0 -3.0625,1.38086 -1.2168,1.38086 -1.2168,4.16992 z"
           style="stroke-width:0.189063"
           id="path5214" />
        <path
           d="m 1677.2813,689.52608 5.3046,-7.54688 -4.9082,-6.97265 h 3.0762 l 2.2285,3.40429 q 0.6289,0.97071 1.0117,1.62696 0.6016,-0.90235 1.1075,-1.59961 l 2.4472,-3.43164 h 2.9395 l -5.0176,6.83594 5.4004,7.68359 h -3.0215 l -2.9805,-4.51172 -0.7929,-1.2168 -3.8145,5.72852 z"
           style="stroke-width:0.189063"
           id="path5216" />
        <path
           d="m 1701.0156,689.52608 v -20.04297 h 6.9043 q 2.3379,0 3.5684,0.28711 1.7226,0.39648 2.9394,1.43555 1.586,1.33984 2.3653,3.43164 0.7929,2.07812 0.7929,4.75781 0,2.2832 -0.5332,4.04687 -0.5332,1.76368 -1.3672,2.92579 -0.8339,1.14843 -1.832,1.81836 -0.9844,0.65625 -2.3926,0.99804 -1.3945,0.3418 -3.2129,0.3418 z m 2.6524,-2.36524 h 4.2793 q 1.9824,0 3.1035,-0.36914 1.1347,-0.36914 1.8047,-1.03906 0.9433,-0.94336 1.4629,-2.5293 0.5332,-1.5996 0.5332,-3.86914 0,-3.14453 -1.0391,-4.82617 -1.0254,-1.69531 -2.502,-2.26953 -1.0664,-0.41016 -3.4316,-0.41016 h -4.2109 z"
           style="stroke-width:0.189063"
           id="path5218" />
        <path
           d="m 1730.3965,687.73506 q -1.3672,1.16211 -2.6387,1.64063 -1.2578,0.47851 -2.707,0.47851 -2.3926,0 -3.6778,-1.16211 -1.2851,-1.17578 -1.2851,-2.99414 0,-1.0664 0.4785,-1.9414 0.4922,-0.88867 1.2715,-1.42188 0.793,-0.5332 1.7773,-0.80664 0.7246,-0.1914 2.1875,-0.36914 2.9805,-0.35547 4.3887,-0.84765 0.014,-0.50586 0.014,-0.64258 0,-1.50391 -0.6973,-2.11914 -0.9433,-0.83399 -2.8027,-0.83399 -1.7363,0 -2.5703,0.61524 -0.8203,0.60156 -1.2168,2.14648 l -2.4063,-0.32812 q 0.3281,-1.54493 1.0801,-2.48829 0.752,-0.95703 2.1738,-1.46289 1.4219,-0.51953 3.2949,-0.51953 1.8594,0 3.0215,0.4375 1.1621,0.4375 1.709,1.10742 0.5469,0.65625 0.7656,1.66797 0.1231,0.62891 0.1231,2.26953 v 3.28125 q 0,3.43165 0.1504,4.34766 0.164,0.90234 0.6289,1.73633 h -2.5703 q -0.3828,-0.76563 -0.4922,-1.79102 z m -0.2051,-5.49609 q -1.3398,0.54687 -4.0195,0.92969 -1.5176,0.21875 -2.1465,0.49218 -0.6289,0.27344 -0.9707,0.80665 -0.3418,0.51953 -0.3418,1.1621 0,0.98438 0.7383,1.64063 0.7519,0.65625 2.1875,0.65625 1.4218,0 2.5293,-0.61523 1.1074,-0.62891 1.6269,-1.70899 0.3965,-0.83398 0.3965,-2.46094 z"
           style="stroke-width:0.189063"
           id="path5220" />
        <path
           d="m 1741.8672,687.32491 0.3555,2.17383 q -1.0391,0.21875 -1.8594,0.21875 -1.3399,0 -2.0781,-0.42383 -0.7383,-0.42383 -1.0391,-1.10742 -0.3008,-0.69727 -0.3008,-2.91211 v -8.35352 h -1.8047 v -1.91406 h 1.8047 v -3.59571 l 2.4473,-1.47656 v 5.07227 h 2.4746 v 1.91406 h -2.4746 v 8.49023 q 0,1.05274 0.123,1.35352 0.1367,0.30078 0.4239,0.47852 0.3007,0.17773 0.8476,0.17773 0.4102,0 1.0801,-0.0957 z"
           style="stroke-width:0.189063"
           id="path5222" />
        <path
           d="m 1753.748,687.73506 q -1.3671,1.16211 -2.6386,1.64063 -1.2578,0.47851 -2.7071,0.47851 -2.3925,0 -3.6777,-1.16211 -1.2851,-1.17578 -1.2851,-2.99414 0,-1.0664 0.4785,-1.9414 0.4922,-0.88867 1.2715,-1.42188 0.7929,-0.5332 1.7773,-0.80664 0.7246,-0.1914 2.1875,-0.36914 2.9805,-0.35547 4.3887,-0.84765 0.014,-0.50586 0.014,-0.64258 0,-1.50391 -0.6972,-2.11914 -0.9434,-0.83399 -2.8028,-0.83399 -1.7363,0 -2.5703,0.61524 -0.8203,0.60156 -1.2168,2.14648 l -2.4062,-0.32812 q 0.3281,-1.54493 1.0801,-2.48829 0.7519,-0.95703 2.1738,-1.46289 1.4219,-0.51953 3.2949,-0.51953 1.8594,0 3.0215,0.4375 1.1621,0.4375 1.709,1.10742 0.5469,0.65625 0.7656,1.66797 0.1231,0.62891 0.1231,2.26953 v 3.28125 q 0,3.43165 0.1503,4.34766 0.1641,0.90234 0.6289,1.73633 h -2.5703 q -0.3828,-0.76563 -0.4922,-1.79102 z m -0.205,-5.49609 q -1.3399,0.54687 -4.0196,0.92969 -1.5175,0.21875 -2.1464,0.49218 -0.629,0.27344 -0.9707,0.80665 -0.3418,0.51953 -0.3418,1.1621 0,0.98438 0.7382,1.64063 0.752,0.65625 2.1875,0.65625 1.4219,0 2.5293,-0.61523 1.1075,-0.62891 1.627,-1.70899 0.3965,-0.83398 0.3965,-2.46094 z"
           style="stroke-width:0.189063"
           id="path5224" />
      </g>
      <path
         id="rect10973"
         style="fill:#decd87;stroke:#ff0000;stroke-width:0.372884"
         d="m 352.08575,45.919743 h 37.90023 v 37.555683 h -37.90023 z" />
      <g
         aria-label="S/TEM
Image"
         transform="matrix(0.26458333,0,0,0.26458333,252.67436,-62.234067)"
         id="text2937"
         style="font-size:28px;line-height:38.2866px;font-family:Bahnschrift;-inkscape-font-specification:Bahnschrift;white-space:pre;shape-inside:url(#rect2939);shape-padding:62.5068;display:inline;fill:#1a1a1a;stroke-width:1.03559">
        <path
           d="m 416.19238,469.03392 q -1.43554,0 -2.7207,-0.27343 -1.28516,-0.27344 -2.40625,-0.82032 -1.10742,-0.54687 -2.07813,-1.36718 v 0 l 1.73633,-2.13282 v 0 q 1.13477,0.98438 2.50196,1.47657 1.36718,0.49218 2.96679,0.49218 2.16016,0 3.34961,-0.79297 1.18946,-0.80664 1.18946,-2.26953 v -0.0137 q 0,-1.03906 -0.54688,-1.64062 -0.5332,-0.61524 -1.39453,-0.90235 -0.84766,-0.30078 -2.20117,-0.54687 -0.041,-0.0137 -0.0957,-0.0137 -0.041,0 -0.082,-0.0137 l -0.20508,-0.041 q -1.99609,-0.3418 -3.2539,-0.76563 -1.24414,-0.4375 -2.13281,-1.57226 -0.88868,-1.14844 -0.88868,-3.25391 v -0.0137 q 0,-1.8457 0.82032,-3.14453 0.83398,-1.3125 2.41992,-1.9961 1.58594,-0.68359 3.81445,-0.68359 1.06641,0 2.0918,0.23242 1.03906,0.23242 2.03711,0.69727 1.01172,0.45117 1.98242,1.14844 v 0 l -1.58594,2.21484 v 0 q -1.13476,-0.83398 -2.26953,-1.24414 -1.12109,-0.42383 -2.25586,-0.42383 -2.03711,0 -3.17187,0.82031 -1.1211,0.80664 -1.1211,2.29688 v 0.0137 q 0,1.02539 0.57422,1.61328 0.58789,0.58789 1.44922,0.875 0.875,0.27344 2.41992,0.57422 0.0547,0.0137 0.0957,0.0273 0.0547,0 0.10937,0.0137 0.0684,0.0137 0.15039,0.0273 0.082,0.0137 0.15039,0.0273 1.80469,0.36914 3.00781,0.875 1.2168,0.50586 2.02344,1.64063 0.82031,1.12109 0.82031,3.07617 v 0.0273 q 0,1.81836 -0.86132,3.11719 -0.86133,1.28516 -2.50196,1.96875 -1.62695,0.66992 -3.9375,0.66992 z"
           style="text-align:center;text-anchor:middle"
           id="path5234" />
        <path
           d="m 427.52637,472.60228 h -2.66602 l 9.22852,-26.0039 h 2.66601 z"
           style="text-align:center;text-anchor:middle"
           id="path5236" />
        <path
           d="m 440.93848,450.57689 h 2.78906 v 18.25196 h -2.78906 z m -5.61914,-1.62695 h 14.02734 v 2.65234 h -14.02734 z"
           style="text-align:center;text-anchor:middle"
           id="path5238" />
        <path
           d="m 452.08105,448.94994 h 2.78907 v 19.87891 h -2.78907 z m 1.35352,17.22656 h 11.41602 v 2.65235 h -11.41602 z m 0,-8.54492 h 9.91211 v 2.65234 h -9.91211 z m 0,-8.68164 h 11.41602 v 2.65234 h -11.41602 z"
           style="text-align:center;text-anchor:middle"
           id="path5240" />
        <path
           d="m 483.10254,448.94994 h 2.61133 v 19.87891 h -2.72071 v -14.88868 l 0.13672,0.875 -4.89453,11.25196 h -1.9414 l -4.89454,-10.97852 0.13672,-1.14844 v 14.88868 h -2.7207 v -19.87891 h 2.61133 l 5.83789,13.125 z"
           style="text-align:center;text-anchor:middle"
           id="path5242" />
        <path
           d="m 414.86621,507.11544 h -2.78906 v -19.87891 h 2.78906 z"
           style="text-align:center;text-anchor:middle"
           id="path5244" />
        <path
           d="m 436.46777,498.51583 q 0,-1.50391 -0.77929,-2.32422 -0.7793,-0.82031 -2.1875,-0.82031 -1.29883,0 -2.00977,0.79296 -0.71094,0.79297 -0.71094,2.24219 l -0.56054,-2.73437 q 0.66992,-1.40821 1.76367,-2.17383 1.10742,-0.7793 2.43359,-0.7793 1.53125,0 2.61133,0.6836 1.09375,0.66992 1.6543,1.96875 0.57422,1.29882 0.57422,3.13085 v 8.61329 h -2.78907 z m -16.95312,-5.5918 h 2.78906 v 14.19141 h -2.78906 z m 8.47656,5.5918 q 0,-1.50391 -0.73828,-2.32422 -0.73828,-0.82031 -2.0918,-0.82031 -1.36718,0 -2.11914,0.7246 -0.73828,0.72461 -0.73828,2.03711 l -0.28711,-2.73437 q 0.65625,-1.28516 1.70899,-1.98242 1.0664,-0.69727 2.35156,-0.69727 1.49023,0 2.54297,0.6836 1.05273,0.66992 1.59961,1.96875 0.56054,1.29882 0.56054,3.13085 v 8.61329 h -2.78906 z"
           style="text-align:center;text-anchor:middle"
           id="path5246" />
        <path
           d="m 451.50684,498.11934 q 0,-1.39453 -0.75196,-2.16015 -0.73828,-0.7793 -2.10547,-0.7793 -0.84765,0 -1.66796,0.25976 -0.80665,0.25977 -1.43555,0.72461 l -2.03711,-1.39453 q 0.80664,-0.9707 2.11914,-1.5039 1.32617,-0.54688 2.93945,-0.54688 1.76367,0 3.02149,0.62891 1.25781,0.61523 1.91406,1.80469 0.65625,1.17578 0.65625,2.84375 v 9.11914 h -2.65234 z m -3.47266,9.20117 q -2.625,0 -3.92383,-1.08007 -1.29883,-1.09375 -1.29883,-3.3086 0,-2.10547 1.18946,-3.1582 1.18945,-1.05274 3.5957,-1.05274 h 4.0332 l 0.19141,2.24219 h -4.21094 q -1.09375,0 -1.64062,0.49219 -0.53321,0.47852 -0.53321,1.47656 0,1.08008 0.71094,1.59961 0.72461,0.51953 2.1875,0.51953 1.59961,0 2.37891,-0.34179 0.79297,-0.3418 0.79297,-1.06641 l 0.28711,1.99609 q -0.36915,0.57422 -0.91602,0.94336 -0.5332,0.36914 -1.24414,0.54688 -0.71094,0.1914 -1.59961,0.1914 z"
           style="text-align:center;text-anchor:middle"
           id="path5248" />
        <path
           d="m 463.15527,512.88497 q -1.59961,0 -2.87109,-0.60157 -1.25781,-0.58789 -1.95508,-1.66796 v 0 l 1.88672,-1.70899 v 0 q 0.54688,0.75195 1.29883,1.16211 0.76562,0.41016 1.59961,0.41016 1.59961,0 2.47461,-0.88867 0.875,-0.875 0.875,-2.48829 v -14.17773 h 2.78906 v 13.76758 q 0,1.95508 -0.72461,3.34961 -0.71094,1.39453 -2.07812,2.11914 -1.36719,0.72461 -3.29493,0.72461 z m -0.25976,-5.52344 q -1.5586,0 -2.66602,-0.66992 -1.09375,-0.6836 -1.66797,-1.98242 -0.57422,-1.29883 -0.57422,-3.11719 v -3.13086 q 0,-1.83203 0.56055,-3.13086 0.56055,-1.29883 1.62695,-1.96875 1.08008,-0.68359 2.58399,-0.68359 1.25781,0 2.29687,0.65625 1.05274,0.65625 1.69532,1.8457 l -0.28711,2.89844 q 0,-0.90235 -0.32813,-1.54493 -0.32812,-0.64257 -0.95703,-0.9707 -0.61523,-0.3418 -1.50391,-0.3418 -1.38085,0 -2.14648,0.86133 -0.75195,0.86133 -0.75195,2.41992 v 3.08985 q 0,1.54492 0.75195,2.39258 0.76563,0.83398 2.14648,0.83398 0.88868,0 1.50391,-0.3418 0.62891,-0.35546 0.95703,-1.01171 0.32813,-0.65625 0.32813,-1.57227 l 0.1914,2.99414 q -0.42382,1.05273 -1.39453,1.76367 -0.95703,0.71094 -2.36523,0.71094 z"
           style="text-align:center;text-anchor:middle"
           id="path5250" />
        <path
           d="m 479.30176,507.32051 q -1.96875,0 -3.36328,-0.73828 -1.39453,-0.73828 -2.13282,-2.16015 -0.72461,-1.43555 -0.72461,-3.45899 v -1.59961 q 0,-2.10547 0.69727,-3.5957 0.71094,-1.49023 2.05078,-2.26953 1.33985,-0.7793 3.22656,-0.7793 1.77735,0 3.03516,0.88867 1.25781,0.88868 1.91406,2.57032 0.66992,1.68164 0.66992,4.0332 v 0.92969 h -9.57031 v -2.24219 h 6.91797 v 0 q -0.12305,-1.73633 -0.90234,-2.69336 -0.76563,-0.9707 -2.06446,-0.9707 -1.58593,0 -2.46093,1.03906 -0.86133,1.03906 -0.86133,2.93945 v 1.80469 q 0,1.76367 0.92969,2.70703 0.92968,0.94336 2.63867,0.94336 0.84765,0 1.68164,-0.3418 0.83398,-0.34179 1.49023,-0.95703 v 0 l 1.83203,1.83203 v 0 q -1.05273,1.01172 -2.36523,1.57227 -1.3125,0.54687 -2.63867,0.54687 z"
           style="text-align:center;text-anchor:middle"
           id="path5252" />
      </g>
      <g
         id="g3297"
         transform="translate(-2.7563805,19.983759)">
        <path
           id="rect10757"
           style="fill:#ffcc00;stroke:#ff0000;stroke-width:0.25866"
           d="m 405.4485,25.299412 h 24.48255 c 5.14957,0 9.29524,4.145676 9.29524,9.295237 v 19.658892 c 0,5.149562 -4.14567,9.295238 -9.29524,9.295238 H 405.4485 c -5.14956,0 -9.29524,-4.145676 -9.29524,-9.295238 V 34.594649 c 0,-5.149561 4.14568,-9.295237 9.29524,-9.295237 z" />
        <g
           aria-label="Box
Prompts"
           transform="matrix(0.26458333,0,0,0.26458333,299.02079,-82.818646)"
           id="text2969"
           style="font-size:28px;line-height:38.2866px;font-family:Bahnschrift;-inkscape-font-specification:Bahnschrift;white-space:pre;shape-inside:url(#rect2971);shape-padding:62.5068;display:inline;fill:#1a1a1a;stroke-width:1.03559">
          <path
             d="m 428.36719,466.24486 h 5.38672 q 2.11914,0 3.08984,-0.80664 0.9707,-0.80664 0.9707,-2.26953 v -0.041 q 0,-1.01172 -0.35547,-1.73632 -0.34179,-0.72461 -1.09375,-1.10743 -0.75195,-0.39648 -1.92773,-0.39648 h -6.07031 v -2.51563 h 6.07031 q 1.54492,0 2.32422,-0.72461 0.79297,-0.7246 0.79297,-2.14648 v 0 q 0,-1.49023 -0.875,-2.22852 -0.875,-0.73828 -2.625,-0.73828 h -5.6875 v -2.58398 h 6.19336 q 1.92773,0 3.22656,0.65625 1.29883,0.65625 1.94141,1.85937 0.64257,1.20313 0.64257,2.8711 v 0 q 0,1.02539 -0.39648,1.92773 -0.39649,0.88867 -1.2168,1.53125 -0.80664,0.62891 -2.00976,0.84766 1.20312,0.17773 2.07812,0.86133 0.875,0.66992 1.33985,1.68164 0.46484,1.01172 0.46484,2.1875 v 0.041 q 0,1.61328 -0.71094,2.84375 -0.71094,1.23047 -2.03711,1.90039 -1.32617,0.66993 -3.08984,0.66993 h -6.42578 z m -1.64063,-17.29492 h 2.77539 v 19.87891 h -2.77539 z"
             style="text-align:center;text-anchor:middle"
             id="path5256" />
          <path
             d="m 449.96875,469.03392 q -1.8457,0 -3.1582,-0.72461 -1.3125,-0.72461 -2.00977,-2.10546 -0.68359,-1.39454 -0.68359,-3.34961 v -2.31055 q 0,-1.92774 0.68359,-3.29492 0.69727,-1.38086 2.00977,-2.0918 1.3125,-0.72461 3.1582,-0.72461 1.8457,0 3.1582,0.72461 1.3125,0.71094 1.9961,2.0918 0.69726,1.36718 0.69726,3.29492 v 2.35156 q 0,1.94141 -0.69726,3.32227 -0.6836,1.36718 -1.9961,2.09179 -1.3125,0.72461 -3.1582,0.72461 z m 0,-2.65234 q 1.46289,0 2.25586,-0.91602 0.80664,-0.91601 0.80664,-2.57031 v -2.35156 q 0,-1.6543 -0.80664,-2.55664 -0.79297,-0.90235 -2.25586,-0.90235 -1.46289,0 -2.26953,0.90235 -0.79297,0.90234 -0.79297,2.55664 v 2.35156 q 0,1.6543 0.79297,2.57031 0.80664,0.91602 2.26953,0.91602 z"
             style="text-align:center;text-anchor:middle"
             id="path5258" />
          <path
             d="m 463.44922,462.37572 -5.22266,-7.73828 h 3.10352 l 4.07422,6.35742 5.37304,7.83399 h -3.08984 z m -0.082,-1.38086 1.33984,2.57031 -3.60937,5.26368 h -3.08985 z m 0.98437,-1.32617 3.10352,-5.03125 h 3.10351 l -5.03125,7.65625 z"
             style="text-align:center;text-anchor:middle"
             id="path5260" />
          <path
             d="m 398.58984,496.75215 h 6.35743 q 0.90234,0 1.58593,-0.42382 0.6836,-0.42383 1.05274,-1.20313 0.38281,-0.7793 0.38281,-1.79101 v 0 q 0,-1.02539 -0.38281,-1.80469 -0.36914,-0.7793 -1.05274,-1.20313 -0.68359,-0.4375 -1.58593,-0.4375 h -6.35743 v -2.65234 h 6.26172 q 1.77735,0 3.13086,0.76562 1.35352,0.75196 2.0918,2.13282 0.75195,1.38086 0.75195,3.19922 v 0 q 0,1.81836 -0.75195,3.19921 -0.73828,1.36719 -2.0918,2.11915 -1.35351,0.75195 -3.13086,0.75195 h -6.26172 z m -1.43554,-9.51562 h 2.78906 v 19.87891 h -2.78906 z"
             style="text-align:center;text-anchor:middle"
             id="path5262" />
          <path
             d="m 413.62891,492.92403 h 2.78906 v 14.19141 h -2.78906 z m 7.80664,3.36328 q -0.36914,-0.45117 -0.92969,-0.68359 -0.56055,-0.23242 -1.29883,-0.23242 -1.32617,0 -2.06445,0.73828 -0.72461,0.72461 -0.72461,2.02343 l -0.28711,-2.73437 q 0.65625,-1.27149 1.69531,-1.96875 1.03906,-0.71094 2.29688,-0.71094 0.9707,0 1.75,0.28711 0.79297,0.27344 1.38086,0.82031 z"
             style="text-align:center;text-anchor:middle"
             id="path5264" />
          <path
             d="m 430.74609,507.32051 q -1.8457,0 -3.1582,-0.72461 -1.3125,-0.7246 -2.00977,-2.10546 -0.68359,-1.39454 -0.68359,-3.34961 v -2.31055 q 0,-1.92773 0.68359,-3.29492 0.69727,-1.38086 2.00977,-2.0918 1.3125,-0.72461 3.1582,-0.72461 1.84571,0 3.15821,0.72461 1.3125,0.71094 1.99609,2.0918 0.69727,1.36719 0.69727,3.29492 v 2.35156 q 0,1.94141 -0.69727,3.32227 -0.68359,1.36719 -1.99609,2.09179 -1.3125,0.72461 -3.15821,0.72461 z m 0,-2.65234 q 1.46289,0 2.25586,-0.91602 0.80664,-0.91601 0.80664,-2.57031 v -2.35156 q 0,-1.6543 -0.80664,-2.55664 -0.79297,-0.90234 -2.25586,-0.90234 -1.46289,0 -2.26953,0.90234 -0.79297,0.90234 -0.79297,2.55664 v 2.35156 q 0,1.6543 0.79297,2.57031 0.80664,0.91602 2.26953,0.91602 z"
             style="text-align:center;text-anchor:middle"
             id="path5266" />
          <path
             d="m 457.51562,498.51583 q 0,-1.50391 -0.77929,-2.32422 -0.7793,-0.82031 -2.1875,-0.82031 -1.29883,0 -2.00977,0.79296 -0.71094,0.79297 -0.71094,2.24219 l -0.56054,-2.73437 q 0.66992,-1.40821 1.76367,-2.17383 1.10742,-0.7793 2.43359,-0.7793 1.53125,0 2.61133,0.6836 1.09375,0.66992 1.6543,1.96875 0.57422,1.29882 0.57422,3.13085 v 8.61329 h -2.78907 z m -16.95312,-5.5918 h 2.78906 v 14.19141 h -2.78906 z m 8.47656,5.5918 q 0,-1.50391 -0.73828,-2.32422 -0.73828,-0.82031 -2.0918,-0.82031 -1.36718,0 -2.11914,0.7246 -0.73828,0.72461 -0.73828,2.03711 l -0.28711,-2.73437 q 0.65625,-1.28516 1.70899,-1.98242 1.0664,-0.69727 2.35156,-0.69727 1.49023,0 2.54297,0.6836 1.05273,0.66992 1.59961,1.96875 0.56054,1.29882 0.56054,3.13085 v 8.61329 h -2.78906 z"
             style="text-align:center;text-anchor:middle"
             id="path5268" />
          <path
             d="m 464.54297,492.92403 h 2.78906 v 19.96094 h -2.78906 z m 6.35742,14.39648 q -1.32617,0 -2.31055,-0.6289 -0.98437,-0.64258 -1.44922,-1.80469 l 0.19141,-2.9668 q 0,0.91602 0.32813,1.5586 0.32812,0.64258 0.94336,0.98437 0.6289,0.3418 1.51757,0.3418 1.38086,0 2.13282,-0.83399 0.76562,-0.84765 0.76562,-2.3789 v -3.07617 q 0,-1.5586 -0.76562,-2.41993 -0.75196,-0.86132 -2.13282,-0.86132 -0.88867,0 -1.51757,0.32812 -0.61524,0.32813 -0.94336,0.9707 -0.32813,0.62891 -0.32813,1.51758 l -0.28711,-2.73437 q 0.64258,-1.24414 1.68164,-1.91406 1.03906,-0.6836 2.31055,-0.6836 1.50391,0 2.57031,0.6836 1.08008,0.66992 1.64063,1.96875 0.56054,1.29882 0.56054,3.13085 v 3.08985 q 0,1.80469 -0.57422,3.08984 -0.57421,1.28516 -1.68164,1.96875 -1.10742,0.66992 -2.65234,0.66992 z"
             style="text-align:center;text-anchor:middle"
             id="path5270" />
          <path
             d="m 483.46484,507.1838 q -1.72265,0 -2.52929,-0.94336 -0.79297,-0.95704 -0.79297,-2.81641 v -14.62891 h 2.78906 v 14.65625 q 0,0.51953 0.20508,0.80664 0.20508,0.27344 0.60156,0.27344 h 1.33984 v 2.65235 z m -4.78515,-14.25977 h 6.39843 v 2.51562 h -6.39843 z"
             style="text-align:center;text-anchor:middle"
             id="path5272" />
          <path
             d="m 493.92383,507.32051 q -1.25781,0 -2.36524,-0.24609 -1.09375,-0.24609 -2.05078,-0.73828 -0.95703,-0.49219 -1.76367,-1.23047 v 0 l 1.6543,-2.03711 v 0 q 1.14843,0.875 2.2832,1.3125 1.13477,0.4375 2.24219,0.4375 1.65429,0 2.47461,-0.50586 0.83398,-0.51953 0.83398,-1.54492 0,-0.68359 -0.45117,-1.02539 -0.45117,-0.3418 -1.12109,-0.45117 -0.66993,-0.12305 -1.88672,-0.21875 -0.10938,0 -0.23242,0 -0.12305,-0.0137 -0.23243,-0.0274 -0.0547,0 -0.10937,0 -0.0547,-0.0137 -0.10938,-0.0137 -1.38086,-0.10937 -2.33789,-0.39648 -0.95703,-0.30078 -1.59961,-1.10742 -0.6289,-0.80665 -0.6289,-2.31055 0,-1.50391 0.61523,-2.50195 0.61524,-0.99805 1.83203,-1.49024 1.2168,-0.50586 3.04883,-0.50586 1.10742,0 2.10547,0.20508 1.01172,0.20508 1.92773,0.61523 0.91602,0.39649 1.76368,1.01172 v 0 l -1.68164,2.03711 v 0 q -1.06641,-0.68359 -2.10547,-1.02539 -1.02539,-0.3418 -2.00977,-0.3418 -1.42187,0 -2.13281,0.49219 -0.71094,0.47852 -0.71094,1.44922 0,0.57422 0.39649,0.86133 0.41015,0.28711 1.02539,0.38281 0.61523,0.0957 1.75,0.16406 0.082,0.0137 0.16406,0.0137 0.0957,0 0.1914,0.0137 0.041,0 0.082,0 0.041,0 0.082,0.0137 1.49023,0.0957 2.52929,0.39648 1.05274,0.30079 1.76368,1.18946 0.71093,0.88867 0.71093,2.57031 0,1.53125 -0.65625,2.54297 -0.65625,0.99805 -1.98242,1.5039 -1.3125,0.50586 -3.30859,0.50586 z"
             style="text-align:center;text-anchor:middle"
             id="path5274" />
        </g>
      </g>
      <g
         aria-label="YOLOv8"
         transform="matrix(0.26458333,0,0,0.26458333,-32.137244,-90.177411)"
         id="text2989"
         style="font-size:28px;line-height:207.231px;font-family:Arial;-inkscape-font-specification:'Arial, Normal';text-align:center;text-anchor:middle;white-space:pre;shape-inside:url(#rect2991);display:inline;stroke:#000000;stroke-width:4.62159">
        <path
           d="m 1644.4072,689.52608 v -8.49024 l -7.7246,-11.55273 h 3.2266 l 3.9512,6.04297 q 1.0937,1.69531 2.0371,3.39062 0.9023,-1.57226 2.1875,-3.54101 l 3.8828,-5.89258 h 3.0898 l -7.998,11.55273 v 8.49024 z"
           style="stroke-width:0.189063"
           id="path5277" />
        <path
           d="m 1656.6299,679.76436 q 0,-4.99023 2.6797,-7.80664 2.6797,-2.83008 6.9179,-2.83008 2.7754,0 5.0039,1.32617 2.2286,1.32618 3.3907,3.70508 1.1758,2.36524 1.1758,5.37305 0,3.04883 -1.2305,5.45508 -1.2305,2.40625 -3.4863,3.65039 -2.2559,1.23047 -4.8672,1.23047 -2.8301,0 -5.0586,-1.36719 -2.2285,-1.36719 -3.377,-3.73242 -1.1484,-2.36524 -1.1484,-5.00391 z m 2.7344,0.041 q 0,3.62304 1.9414,5.71484 1.955,2.07812 4.8945,2.07812 2.9941,0 4.9219,-2.10546 1.9414,-2.10547 1.9414,-5.97461 0,-2.44727 -0.834,-4.26563 -0.8203,-1.83203 -2.4199,-2.83008 -1.586,-1.01172 -3.5684,-1.01172 -2.8164,0 -4.8535,1.94141 -2.0234,1.92774 -2.0234,6.45313 z"
           style="stroke-width:0.189063"
           id="path5279" />
        <path
           d="m 1679.1064,689.52608 v -20.04297 h 2.6524 v 17.67773 h 9.8711 v 2.36524 z"
           style="stroke-width:0.189063"
           id="path5281" />
        <path
           d="m 1693.9814,679.76436 q 0,-4.99023 2.6797,-7.80664 2.6797,-2.83008 6.918,-2.83008 2.7754,0 5.0039,1.32617 2.2285,1.32618 3.3906,3.70508 1.1758,2.36524 1.1758,5.37305 0,3.04883 -1.2305,5.45508 -1.2304,2.40625 -3.4863,3.65039 -2.2558,1.23047 -4.8672,1.23047 -2.83,0 -5.0586,-1.36719 -2.2285,-1.36719 -3.3769,-3.73242 -1.1485,-2.36524 -1.1485,-5.00391 z m 2.7344,0.041 q 0,3.62304 1.9414,5.71484 1.9551,2.07812 4.8946,2.07812 2.9941,0 4.9218,-2.10546 1.9414,-2.10547 1.9414,-5.97461 0,-2.44727 -0.8339,-4.26563 -0.8204,-1.83203 -2.42,-2.83008 -1.5859,-1.01172 -3.5683,-1.01172 -2.8164,0 -4.8535,1.94141 -2.0235,1.92774 -2.0235,6.45313 z"
           style="stroke-width:0.189063"
           id="path5283" />
        <path
           d="m 1720.2861,689.52608 -5.5234,-14.51953 h 2.5977 l 3.1171,8.69531 q 0.5059,1.4082 0.9297,2.92578 0.3282,-1.14844 0.916,-2.76172 l 3.2266,-8.85937 h 2.5293 l -5.4961,14.51953 z"
           style="stroke-width:0.189063"
           id="path5285" />
        <path
           d="m 1733.3564,678.65694 q -1.5312,-0.56055 -2.2695,-1.59961 -0.7383,-1.03906 -0.7383,-2.48828 0,-2.1875 1.5723,-3.67774 1.5723,-1.49023 4.1836,-1.49023 2.625,0 4.2246,1.53125 1.5996,1.51758 1.5996,3.70508 0,1.39453 -0.7383,2.43359 -0.7246,1.02539 -2.2148,1.58594 1.8457,0.60156 2.8027,1.9414 0.9707,1.33985 0.9707,3.19922 0,2.57032 -1.8183,4.32032 -1.8184,1.75 -4.7852,1.75 -2.9668,0 -4.7851,-1.75 -1.8184,-1.76368 -1.8184,-4.38868 0,-1.95507 0.9844,-3.26757 0.998,-1.32618 2.83,-1.80469 z m -0.4921,-4.16992 q 0,1.42187 0.916,2.32422 0.916,0.90234 2.3789,0.90234 1.4219,0 2.3242,-0.88867 0.916,-0.90235 0.916,-2.20117 0,-1.35352 -0.9433,-2.26954 -0.9297,-0.92968 -2.3243,-0.92968 -1.4082,0 -2.3379,0.90234 -0.9296,0.90234 -0.9296,2.16016 z m -0.793,9.25586 q 0,1.05273 0.4922,2.03711 0.5058,0.98437 1.4902,1.53125 0.9844,0.5332 2.1192,0.5332 1.7636,0 2.9121,-1.13477 1.1484,-1.13476 1.1484,-2.88476 0,-1.77735 -1.1895,-2.93946 -1.1757,-1.16211 -2.9531,-1.16211 -1.7363,0 -2.8847,1.14844 -1.1348,1.14844 -1.1348,2.8711 z"
           style="stroke-width:0.189063"
           id="path5287" />
      </g>
      <g
         id="g3302"
         transform="translate(-2.7563805,19.983759)">
        <path
           id="rect10759"
           style="fill:#ff9955;stroke:#ff0000;stroke-width:0.278376"
           d="m 442.79858,25.983236 h 77.10591 c 0.11559,0 0.20865,0.09305 0.20865,0.208643 v 37.138398 c 0,0.115588 -0.0931,0.208642 -0.20865,0.208642 h -77.10591 c -0.11559,0 -0.20864,-0.09305 -0.20864,-0.208642 V 26.191879 c 0,-0.115588 0.0931,-0.208643 0.20864,-0.208643 z" />
        <g
           aria-label="Segmentation"
           transform="matrix(0.26170921,0,0,0.26463228,364.2221,-77.412135)"
           id="text3012"
           style="font-size:28px;line-height:38.2866px;font-family:Bahnschrift;-inkscape-font-specification:Bahnschrift;text-align:center;white-space:pre;shape-inside:url(#rect3014);shape-padding:62.5068;display:inline;fill:#1a1a1a;stroke-width:1.03559">
          <path
             d="m 369.86523,469.03392 q -1.43554,0 -2.7207,-0.27343 -1.28516,-0.27344 -2.40625,-0.82032 -1.10742,-0.54687 -2.07812,-1.36718 v 0 l 1.73632,-2.13282 v 0 q 1.13477,0.98438 2.50196,1.47657 1.36718,0.49218 2.96679,0.49218 2.16016,0 3.34961,-0.79297 1.18946,-0.80664 1.18946,-2.26953 v -0.0137 q 0,-1.03906 -0.54688,-1.64062 -0.5332,-0.61524 -1.39453,-0.90235 -0.84766,-0.30078 -2.20117,-0.54687 -0.041,-0.0137 -0.0957,-0.0137 -0.041,0 -0.082,-0.0137 l -0.20507,-0.041 q -1.9961,-0.3418 -3.25391,-0.76563 -1.24414,-0.4375 -2.13281,-1.57226 -0.88867,-1.14844 -0.88867,-3.25391 v -0.0137 q 0,-1.8457 0.82031,-3.14453 0.83398,-1.3125 2.41992,-1.9961 1.58594,-0.68359 3.81445,-0.68359 1.06641,0 2.0918,0.23242 1.03906,0.23242 2.03711,0.69727 1.01172,0.45117 1.98242,1.14844 v 0 l -1.58594,2.21484 v 0 q -1.13476,-0.83398 -2.26953,-1.24414 -1.12109,-0.42383 -2.25586,-0.42383 -2.03711,0 -3.17187,0.82031 -1.1211,0.80664 -1.1211,2.29688 v 0.0137 q 0,1.02539 0.57422,1.61328 0.58789,0.58789 1.44922,0.875 0.875,0.27344 2.41992,0.57422 0.0547,0.0137 0.0957,0.0273 0.0547,0 0.10937,0.0137 0.0684,0.0137 0.15039,0.0273 0.082,0.0137 0.15039,0.0273 1.80469,0.36914 3.00782,0.875 1.21679,0.50586 2.02343,1.64063 0.82032,1.12109 0.82032,3.07617 v 0.0273 q 0,1.81836 -0.86133,3.11719 -0.86133,1.28516 -2.50196,1.96875 -1.62695,0.66992 -3.9375,0.66992 z"
             id="path5291" />
          <path
             d="m 386.66797,469.03392 q -1.96875,0 -3.36328,-0.73828 -1.39453,-0.73828 -2.13282,-2.16015 -0.7246,-1.43555 -0.7246,-3.45899 v -1.59961 q 0,-2.10547 0.69726,-3.5957 0.71094,-1.49024 2.05078,-2.26953 1.33985,-0.7793 3.22656,-0.7793 1.77735,0 3.03516,0.88867 1.25781,0.88867 1.91406,2.57032 0.66993,1.68164 0.66993,4.0332 v 0.92969 h -9.57032 v -2.24219 h 6.91797 v 0 q -0.12305,-1.73633 -0.90234,-2.69336 -0.76563,-0.9707 -2.06446,-0.9707 -1.58593,0 -2.46093,1.03906 -0.86133,1.03906 -0.86133,2.93945 v 1.80469 q 0,1.76367 0.92969,2.70703 0.92968,0.94336 2.63867,0.94336 0.84765,0 1.68164,-0.3418 0.83398,-0.34179 1.49023,-0.95703 v 0 l 1.83203,1.83203 v 0 q -1.05273,1.01172 -2.36523,1.57227 -1.3125,0.54687 -2.63867,0.54687 z"
             id="path5293" />
          <path
             d="m 400.62695,474.59838 q -1.59961,0 -2.87109,-0.60157 -1.25781,-0.58789 -1.95508,-1.66796 v 0 l 1.88672,-1.70899 v 0 q 0.54687,0.75195 1.29883,1.16211 0.76562,0.41016 1.59961,0.41016 1.59961,0 2.47461,-0.88868 0.875,-0.875 0.875,-2.48828 v -14.17773 h 2.78906 v 13.76758 q 0,1.95508 -0.72461,3.34961 -0.71094,1.39453 -2.07813,2.11914 -1.36718,0.72461 -3.29492,0.72461 z m -0.25976,-5.52344 q -1.5586,0 -2.66602,-0.66992 -1.09375,-0.6836 -1.66797,-1.98242 -0.57422,-1.29883 -0.57422,-3.11719 v -3.13086 q 0,-1.83203 0.56055,-3.13086 0.56055,-1.29883 1.62695,-1.96875 1.08008,-0.68359 2.58399,-0.68359 1.25781,0 2.29687,0.65625 1.05274,0.65625 1.69532,1.8457 l -0.28711,2.89844 q 0,-0.90235 -0.32813,-1.54493 -0.32812,-0.64257 -0.95703,-0.9707 -0.61523,-0.3418 -1.50391,-0.3418 -1.38086,0 -2.14648,0.86133 -0.75195,0.86133 -0.75195,2.41992 v 3.08985 q 0,1.54492 0.75195,2.39258 0.76562,0.83398 2.14648,0.83398 0.88868,0 1.50391,-0.3418 0.62891,-0.35547 0.95703,-1.01172 0.32813,-0.65625 0.32813,-1.57226 l 0.1914,2.99414 q -0.42383,1.05273 -1.39453,1.76367 -0.95703,0.71094 -2.36523,0.71094 z"
             id="path5295" />
          <path
             d="m 427.91602,460.22924 q 0,-1.50391 -0.7793,-2.32422 -0.7793,-0.82032 -2.1875,-0.82032 -1.29883,0 -2.00977,0.79297 -0.71093,0.79297 -0.71093,2.24219 l -0.56055,-2.73437 q 0.66992,-1.40821 1.76367,-2.17383 1.10742,-0.7793 2.43359,-0.7793 1.53125,0 2.61133,0.68359 1.09375,0.66993 1.6543,1.96875 0.57422,1.29883 0.57422,3.13086 v 8.61329 h -2.78906 z m -16.95313,-5.5918 h 2.78906 v 14.19141 h -2.78906 z m 8.47656,5.5918 q 0,-1.50391 -0.73828,-2.32422 -0.73828,-0.82032 -2.0918,-0.82032 -1.36718,0 -2.11914,0.72461 -0.73828,0.72461 -0.73828,2.03711 l -0.28711,-2.73437 q 0.65625,-1.28516 1.70899,-1.98242 1.0664,-0.69727 2.35156,-0.69727 1.49023,0 2.54297,0.68359 1.05273,0.66993 1.59961,1.96875 0.56055,1.29883 0.56055,3.13086 v 8.61329 h -2.78907 z"
             id="path5297" />
          <path
             d="m 440.75391,469.03392 q -1.96875,0 -3.36329,-0.73828 -1.39453,-0.73828 -2.13281,-2.16015 -0.72461,-1.43555 -0.72461,-3.45899 v -1.59961 q 0,-2.10547 0.69727,-3.5957 0.71094,-1.49024 2.05078,-2.26953 1.33984,-0.7793 3.22656,-0.7793 1.77735,0 3.03516,0.88867 1.25781,0.88867 1.91406,2.57032 0.66992,1.68164 0.66992,4.0332 v 0.92969 h -9.57031 v -2.24219 h 6.91797 v 0 q -0.12305,-1.73633 -0.90234,-2.69336 -0.76563,-0.9707 -2.06446,-0.9707 -1.58594,0 -2.46094,1.03906 -0.86132,1.03906 -0.86132,2.93945 v 1.80469 q 0,1.76367 0.92968,2.70703 0.92969,0.94336 2.63868,0.94336 0.84765,0 1.68164,-0.3418 0.83398,-0.34179 1.49023,-0.95703 v 0 l 1.83203,1.83203 v 0 q -1.05273,1.01172 -2.36523,1.57227 -1.3125,0.54687 -2.63867,0.54687 z"
             id="path5299" />
          <path
             d="m 449.95508,454.63744 h 2.78906 v 14.19141 h -2.78906 z m 8.61328,5.5918 q 0,-1.50391 -0.7793,-2.32422 -0.77929,-0.82032 -2.1875,-0.82032 -1.36719,0 -2.11914,0.72461 -0.73828,0.72461 -0.73828,2.03711 l -0.28711,-2.73437 q 0.65625,-1.28516 1.70899,-1.98242 1.0664,-0.69727 2.35156,-0.69727 2.31054,0 3.56836,1.51758 1.27148,1.50391 1.27148,4.26562 v 8.61329 h -2.78906 z"
             id="path5301" />
          <path
             d="m 469.28711,468.8972 q -1.72266,0 -2.5293,-0.94335 -0.79297,-0.95704 -0.79297,-2.81641 v -14.62891 h 2.78907 v 14.65625 q 0,0.51953 0.20507,0.80664 0.20508,0.27344 0.60157,0.27344 h 1.33984 v 2.65234 z m -4.78516,-14.25976 h 6.39844 v 2.51562 h -6.39844 z"
             id="path5303" />
          <path
             d="m 482.74023,459.83275 q 0,-1.39453 -0.75195,-2.16015 -0.73828,-0.7793 -2.10547,-0.7793 -0.84765,0 -1.66797,0.25976 -0.80664,0.25977 -1.43554,0.72461 l -2.03711,-1.39453 q 0.80664,-0.9707 2.11914,-1.5039 1.32617,-0.54688 2.93945,-0.54688 1.76367,0 3.02149,0.62891 1.25781,0.61523 1.91406,1.80468 0.65625,1.17579 0.65625,2.84375 v 9.11915 h -2.65235 z m -3.47265,9.20117 q -2.625,0 -3.92383,-1.08007 -1.29883,-1.09375 -1.29883,-3.3086 0,-2.10547 1.18945,-3.1582 1.18946,-1.05274 3.59571,-1.05274 h 4.0332 l 0.19141,2.24219 h -4.21094 q -1.09375,0 -1.64063,0.49219 -0.5332,0.47851 -0.5332,1.47656 0,1.08008 0.71094,1.59961 0.72461,0.51953 2.1875,0.51953 1.59961,0 2.37891,-0.34179 0.79296,-0.3418 0.79296,-1.06641 l 0.28711,1.99609 q -0.36914,0.57422 -0.91601,0.94336 -0.53321,0.36914 -1.24414,0.54688 -0.71094,0.1914 -1.59961,0.1914 z"
             id="path5305" />
          <path
             d="m 493.32227,468.8972 q -1.72266,0 -2.5293,-0.94335 Q 490,466.99681 490,465.13744 v -14.62891 h 2.78906 v 14.65625 q 0,0.51953 0.20508,0.80664 0.20508,0.27344 0.60156,0.27344 h 1.33985 v 2.65234 z m -4.78516,-14.25976 h 6.39844 v 2.51562 h -6.39844 z"
             id="path5307" />
          <path
             d="m 498.76367,448.94994 h 2.78906 v 2.78906 h -2.78906 z m 0,5.6875 h 2.78906 v 14.19141 h -2.78906 z"
             id="path5309" />
          <path
             d="m 511.23242,469.03392 q -1.8457,0 -3.1582,-0.72461 -1.3125,-0.72461 -2.00977,-2.10546 -0.68359,-1.39454 -0.68359,-3.34961 v -2.31055 q 0,-1.92774 0.68359,-3.29492 0.69727,-1.38086 2.00977,-2.0918 1.3125,-0.72461 3.1582,-0.72461 1.8457,0 3.1582,0.72461 1.3125,0.71094 1.9961,2.0918 0.69726,1.36718 0.69726,3.29492 v 2.35156 q 0,1.94141 -0.69726,3.32227 -0.6836,1.36718 -1.9961,2.09179 -1.3125,0.72461 -3.1582,0.72461 z m 0,-2.65234 q 1.46289,0 2.25586,-0.91602 0.80664,-0.91601 0.80664,-2.57031 v -2.35156 q 0,-1.6543 -0.80664,-2.55664 -0.79297,-0.90235 -2.25586,-0.90235 -1.46289,0 -2.26953,0.90235 -0.79297,0.90234 -0.79297,2.55664 v 2.35156 q 0,1.6543 0.79297,2.57031 0.80664,0.91602 2.26953,0.91602 z"
             id="path5311" />
          <path
             d="m 521.04883,454.63744 h 2.78906 v 14.19141 h -2.78906 z m 8.61328,5.5918 q 0,-1.50391 -0.7793,-2.32422 -0.77929,-0.82032 -2.1875,-0.82032 -1.36719,0 -2.11914,0.72461 -0.73828,0.72461 -0.73828,2.03711 l -0.28711,-2.73437 q 0.65625,-1.28516 1.70899,-1.98242 1.0664,-0.69727 2.35156,-0.69727 2.31054,0 3.56836,1.51758 1.27148,1.50391 1.27148,4.26562 v 8.61329 h -2.78906 z"
             id="path5313" />
        </g>
      </g>
      <g
         aria-label="SAM"
         transform="matrix(0.26458333,0,0,0.26458333,31.486535,-90.181031)"
         id="text3032"
         style="font-size:28px;line-height:207.231px;font-family:Arial;-inkscape-font-specification:'Arial, Normal';text-align:center;text-anchor:middle;white-space:pre;shape-inside:url(#rect3034);display:inline;stroke:#000000;stroke-width:4.62159">
        <path
           d="m 1661.21,683.08663 2.5019,-0.21875 q 0.1777,1.5039 0.8203,2.47461 0.6563,0.95703 2.0235,1.55859 1.3672,0.58789 3.0761,0.58789 1.5176,0 2.6797,-0.45117 1.1621,-0.45117 1.7227,-1.23047 0.5742,-0.79297 0.5742,-1.72266 0,-0.94336 -0.5469,-1.64062 -0.5469,-0.71094 -1.8047,-1.18946 -0.8066,-0.31445 -3.5683,-0.9707 -2.7617,-0.66992 -3.8692,-1.25781 -1.4355,-0.75195 -2.1464,-1.85938 -0.6973,-1.12109 -0.6973,-2.50195 0,-1.51758 0.8613,-2.83008 0.8613,-1.32617 2.5156,-2.00976 1.6543,-0.6836 3.6778,-0.6836 2.2285,0 3.9238,0.72461 1.709,0.71094 2.625,2.10547 0.916,1.39453 0.9844,3.1582 l -2.543,0.19141 q -0.2051,-1.90039 -1.3945,-2.87109 -1.1758,-0.97071 -3.4864,-0.97071 -2.4062,0 -3.5136,0.88868 -1.0938,0.875 -1.0938,2.11914 0,1.08007 0.7793,1.77734 0.7656,0.69727 3.9922,1.43555 3.2402,0.72461 4.4434,1.27148 1.75,0.80664 2.584,2.05078 0.8339,1.23047 0.8339,2.84375 0,1.59961 -0.916,3.02149 -0.916,1.4082 -2.6386,2.20117 -1.709,0.7793 -3.8555,0.7793 -2.7207,0 -4.5664,-0.79297 -1.8321,-0.79297 -2.8848,-2.37891 -1.0391,-1.59961 -1.0937,-3.60937 z"
           style="stroke-width:0.189063"
           id="path5316" />
        <path
           d="m 1678.5869,689.52608 7.6973,-20.04297 h 2.8574 l 8.2031,20.04297 h -3.0215 l -2.3378,-6.07031 h -8.3809 l -2.2012,6.07031 z m 5.7832,-8.23047 h 6.7949 l -2.0918,-5.55078 q -0.957,-2.5293 -1.4218,-4.15625 -0.3828,1.92773 -1.0801,3.82812 z"
           style="stroke-width:0.189063"
           id="path5318" />
        <path
           d="m 1699.3818,689.52608 v -20.04297 h 3.9922 l 4.7442,14.19141 q 0.6562,1.98242 0.957,2.96679 0.3418,-1.09375 1.0664,-3.21289 l 4.7988,-13.94531 h 3.5684 v 20.04297 h -2.5567 v -16.77539 l -5.8242,16.77539 h -2.3925 l -5.7969,-17.0625 v 17.0625 z"
           style="stroke-width:0.189063"
           id="path5320" />
      </g>
      <g
         id="g3306"
         transform="translate(-2.7563805,19.983759)">
        <path
           id="rect10971"
           style="fill:#decd87;stroke:#ff0000;stroke-width:0.372884"
           d="M 523.53387,25.935982 H 561.4341 V 63.491665 H 523.53387 Z" />
        <g
           aria-label="Size
Area"
           transform="matrix(0.26458333,0,0,0.26458333,462.08321,-81.765657)"
           id="text3052"
           style="font-size:28px;line-height:38.2866px;font-family:Bahnschrift;-inkscape-font-specification:Bahnschrift;white-space:pre;shape-inside:url(#rect3054);shape-padding:62.5068;display:inline;fill:#1a1a1a;stroke-width:1.03559">
          <path
             d="m 283.20508,469.03392 q -1.43555,0 -2.72071,-0.27343 -1.28515,-0.27344 -2.40625,-0.82032 Q 276.9707,467.3933 276,466.57299 v 0 l 1.73633,-2.13282 v 0 q 1.13476,0.98438 2.50195,1.47657 1.36719,0.49218 2.9668,0.49218 2.16015,0 3.34961,-0.79297 1.18945,-0.80664 1.18945,-2.26953 v -0.0137 q 0,-1.03906 -0.54687,-1.64062 -0.53321,-0.61524 -1.39454,-0.90235 -0.84765,-0.30078 -2.20117,-0.54687 -0.041,-0.0137 -0.0957,-0.0137 -0.041,0 -0.082,-0.0137 l -0.20508,-0.041 q -1.99609,-0.3418 -3.25391,-0.76563 -1.24414,-0.4375 -2.13281,-1.57226 -0.88867,-1.14844 -0.88867,-3.25391 v -0.0137 q 0,-1.8457 0.82031,-3.14453 0.83399,-1.3125 2.41992,-1.9961 1.58594,-0.68359 3.81446,-0.68359 1.0664,0 2.09179,0.23242 1.03907,0.23242 2.03711,0.69727 1.01172,0.45117 1.98242,1.14844 v 0 l -1.58593,2.21484 v 0 q -1.13477,-0.83398 -2.26953,-1.24414 -1.1211,-0.42383 -2.25586,-0.42383 -2.03711,0 -3.17188,0.82031 -1.12109,0.80664 -1.12109,2.29688 v 0.0137 q 0,1.02539 0.57422,1.61328 0.58789,0.58789 1.44922,0.875 0.875,0.27344 2.41992,0.57422 0.0547,0.0137 0.0957,0.0273 0.0547,0 0.10938,0.0137 0.0684,0.0137 0.15039,0.0273 0.082,0.0137 0.15039,0.0273 1.80468,0.36914 3.00781,0.875 1.2168,0.50586 2.02344,1.64063 0.82031,1.12109 0.82031,3.07617 v 0.0273 q 0,1.81836 -0.86133,3.11719 -0.86133,1.28516 -2.50195,1.96875 -1.62696,0.66992 -3.9375,0.66992 z"
             id="path5324" />
          <path
             d="m 294.19727,448.94994 h 2.78906 v 2.78906 h -2.78906 z m 0,5.6875 h 2.78906 v 14.19141 h -2.78906 z"
             id="path5326" />
          <path
             d="m 311.01367,456.989 -6.82226,9.25586 h 7.1914 v 2.58399 h -10.56836 v -2.40625 l 7,-9.20118 h -6.80859 v -2.58398 h 10.00781 z"
             id="path5328" />
          <path
             d="m 320.88477,469.03392 q -1.96875,0 -3.36329,-0.73828 -1.39453,-0.73828 -2.13281,-2.16015 -0.72461,-1.43555 -0.72461,-3.45899 v -1.59961 q 0,-2.10547 0.69727,-3.5957 0.71094,-1.49024 2.05078,-2.26953 1.33984,-0.7793 3.22656,-0.7793 1.77735,0 3.03516,0.88867 1.25781,0.88867 1.91406,2.57032 0.66992,1.68164 0.66992,4.0332 v 0.92969 h -9.57031 v -2.24219 h 6.91797 v 0 q -0.12305,-1.73633 -0.90235,-2.69336 -0.76562,-0.9707 -2.06445,-0.9707 -1.58594,0 -2.46094,1.03906 -0.86132,1.03906 -0.86132,2.93945 v 1.80469 q 0,1.76367 0.92968,2.70703 0.92969,0.94336 2.63868,0.94336 0.84765,0 1.68164,-0.3418 0.83398,-0.34179 1.49023,-0.95703 v 0 l 1.83203,1.83203 v 0 q -1.05273,1.01172 -2.36523,1.57227 -1.3125,0.54687 -2.63867,0.54687 z"
             id="path5330" />
          <path
             d="m 282.64453,487.23653 h 2.37891 l 7.32812,19.87891 h -3.00781 l -5.50977,-16.03711 -5.50976,16.03711 h -3.00781 z m -3.95117,12.86523 h 10.45898 v 2.65235 h -10.45898 z"
             id="path5332" />
          <path
             d="m 295.08594,492.92403 h 2.78906 v 14.19141 h -2.78906 z m 7.80664,3.36328 q -0.36914,-0.45117 -0.92969,-0.68359 -0.56055,-0.23242 -1.29883,-0.23242 -1.32617,0 -2.06445,0.73828 -0.72461,0.72461 -0.72461,2.02343 l -0.28711,-2.73437 q 0.65625,-1.27149 1.69531,-1.96875 1.03907,-0.71094 2.29688,-0.71094 0.9707,0 1.75,0.28711 0.79297,0.27344 1.38086,0.82031 z"
             id="path5334" />
          <path
             d="m 312.57227,507.32051 q -1.96875,0 -3.36329,-0.73828 -1.39453,-0.73828 -2.13281,-2.16015 -0.72461,-1.43555 -0.72461,-3.45899 v -1.59961 q 0,-2.10547 0.69727,-3.5957 0.71094,-1.49023 2.05078,-2.26953 1.33984,-0.7793 3.22656,-0.7793 1.77735,0 3.03516,0.88867 1.25781,0.88868 1.91406,2.57032 0.66992,1.68164 0.66992,4.0332 v 0.92969 H 308.375 v -2.24219 h 6.91797 v 0 q -0.12305,-1.73633 -0.90235,-2.69336 -0.76562,-0.9707 -2.06445,-0.9707 -1.58594,0 -2.46094,1.03906 -0.86132,1.03906 -0.86132,2.93945 v 1.80469 q 0,1.76367 0.92968,2.70703 0.92969,0.94336 2.63868,0.94336 0.84765,0 1.68164,-0.3418 0.83398,-0.34179 1.49023,-0.95703 v 0 l 1.83203,1.83203 v 0 q -1.05273,1.01172 -2.36523,1.57227 -1.3125,0.54687 -2.63867,0.54687 z"
             id="path5336" />
          <path
             d="m 329.78516,498.11934 q 0,-1.39453 -0.75196,-2.16015 -0.73828,-0.7793 -2.10547,-0.7793 -0.84765,0 -1.66796,0.25976 -0.80665,0.25977 -1.43555,0.72461 l -2.03711,-1.39453 q 0.80664,-0.9707 2.11914,-1.5039 1.32617,-0.54688 2.93945,-0.54688 1.76367,0 3.02149,0.62891 1.25781,0.61523 1.91406,1.80469 0.65625,1.17578 0.65625,2.84375 v 9.11914 h -2.65234 z m -3.47266,9.20117 q -2.625,0 -3.92383,-1.08007 -1.29883,-1.09375 -1.29883,-3.3086 0,-2.10547 1.18946,-3.1582 1.18945,-1.05274 3.5957,-1.05274 h 4.0332 l 0.19141,2.24219 h -4.21094 q -1.09375,0 -1.64062,0.49219 -0.53321,0.47852 -0.53321,1.47656 0,1.08008 0.71094,1.59961 0.72461,0.51953 2.1875,0.51953 1.59961,0 2.37891,-0.34179 0.79297,-0.3418 0.79297,-1.06641 l 0.28711,1.99609 q -0.36915,0.57422 -0.91602,0.94336 -0.5332,0.36914 -1.24414,0.54688 -0.71094,0.1914 -1.59961,0.1914 z"
             id="path5338" />
        </g>
      </g>
      <g
         aria-label="Analysis"
         transform="matrix(0.26458333,0,0,0.26458333,92.653353,-91.305101)"
         id="text3072"
         style="font-size:28px;line-height:207.231px;font-family:Arial;-inkscape-font-specification:'Arial, Normal';text-align:center;text-anchor:middle;white-space:pre;shape-inside:url(#rect3074);display:inline;stroke:#000000;stroke-width:4.62159">
        <path
           d="m 1638.1182,689.52608 7.6972,-20.04297 h 2.8575 l 8.2031,20.04297 h -3.0215 l -2.3379,-6.07031 h -8.3809 l -2.2011,6.07031 z m 5.7832,-8.23047 h 6.7949 l -2.0918,-5.55078 q -0.957,-2.5293 -1.4219,-4.15625 -0.3828,1.92773 -1.0801,3.82812 z"
           style="stroke-width:0.189063"
           id="path5341" />
        <path
           d="m 1658.6807,689.52608 v -14.51953 h 2.2148 v 2.06445 q 1.5996,-2.39258 4.6211,-2.39258 1.3125,0 2.4063,0.47852 1.1074,0.46484 1.6542,1.23047 0.5469,0.76562 0.7657,1.81836 0.1367,0.68359 0.1367,2.39257 v 8.92774 h -2.4609 v -8.83203 q 0,-1.50391 -0.2872,-2.24219 -0.2871,-0.75195 -1.0253,-1.18945 -0.7247,-0.45117 -1.709,-0.45117 -1.5723,0 -2.7207,0.99804 -1.1348,0.99805 -1.1348,3.78711 v 7.92969 z"
           style="stroke-width:0.189063"
           id="path5343" />
        <path
           d="m 1683.7275,687.73506 q -1.3671,1.16211 -2.6386,1.64063 -1.2578,0.47851 -2.7071,0.47851 -2.3925,0 -3.6777,-1.16211 -1.2852,-1.17578 -1.2852,-2.99414 0,-1.0664 0.4786,-1.9414 0.4921,-0.88867 1.2714,-1.42188 0.793,-0.5332 1.7774,-0.80664 0.7246,-0.1914 2.1875,-0.36914 2.9805,-0.35547 4.3887,-0.84765 0.014,-0.50586 0.014,-0.64258 0,-1.50391 -0.6972,-2.11914 -0.9434,-0.83399 -2.8028,-0.83399 -1.7363,0 -2.5703,0.61524 -0.8203,0.60156 -1.2168,2.14648 l -2.4062,-0.32812 q 0.3281,-1.54493 1.0801,-2.48829 0.7519,-0.95703 2.1738,-1.46289 1.4219,-0.51953 3.2949,-0.51953 1.8594,0 3.0215,0.4375 1.1621,0.4375 1.709,1.10742 0.5468,0.65625 0.7656,1.66797 0.123,0.62891 0.123,2.26953 v 3.28125 q 0,3.43165 0.1504,4.34766 0.1641,0.90234 0.6289,1.73633 h -2.5703 q -0.3828,-0.76563 -0.4922,-1.79102 z m -0.205,-5.49609 q -1.3399,0.54687 -4.0196,0.92969 -1.5175,0.21875 -2.1465,0.49218 -0.6289,0.27344 -0.9707,0.80665 -0.3418,0.51953 -0.3418,1.1621 0,0.98438 0.7383,1.64063 0.752,0.65625 2.1875,0.65625 1.4219,0 2.5293,-0.61523 1.1074,-0.62891 1.627,-1.70899 0.3965,-0.83398 0.3965,-2.46094 z"
           style="stroke-width:0.189063"
           id="path5345" />
        <path
           d="m 1689.7705,689.52608 v -20.04297 h 2.4609 v 20.04297 z"
           style="stroke-width:0.189063"
           id="path5347" />
        <path
           d="m 1695.9365,695.11788 -0.2734,-2.31055 q 0.8066,0.21875 1.4082,0.21875 0.8203,0 1.3125,-0.27344 0.4922,-0.27344 0.8066,-0.76562 0.2325,-0.36914 0.752,-1.83203 0.068,-0.20508 0.2187,-0.60157 l -5.5097,-14.54687 h 2.6523 l 3.0215,8.4082 q 0.5879,1.59961 1.0527,3.36328 0.4239,-1.69531 1.0117,-3.30859 l 3.1036,-8.46289 h 2.4609 l -5.5234,14.76562 q -0.8887,2.39258 -1.3809,3.29492 -0.6562,1.2168 -1.5039,1.77735 -0.8477,0.57422 -2.0234,0.57422 -0.711,0 -1.586,-0.30078 z"
           style="stroke-width:0.189063"
           id="path5349" />
        <path
           d="m 1709.0615,685.19209 2.4336,-0.38281 q 0.2051,1.46289 1.1348,2.24219 0.9433,0.7793 2.625,0.7793 1.6953,0 2.5156,-0.6836 0.8203,-0.69726 0.8203,-1.62695 0,-0.83398 -0.7246,-1.3125 -0.5058,-0.32813 -2.5156,-0.83398 -2.707,-0.6836 -3.7598,-1.17579 -1.039,-0.50586 -1.5859,-1.38086 -0.5332,-0.88867 -0.5332,-1.95507 0,-0.97071 0.4375,-1.79102 0.4512,-0.83398 1.2168,-1.38086 0.5742,-0.42383 1.5586,-0.71094 0.998,-0.30078 2.1328,-0.30078 1.709,0 2.9941,0.49219 1.2989,0.49219 1.9141,1.33984 0.6152,0.83399 0.8476,2.24219 l -2.4062,0.32813 q -0.1641,-1.1211 -0.957,-1.75 -0.7793,-0.62891 -2.2149,-0.62891 -1.6953,0 -2.4199,0.56055 -0.7246,0.56054 -0.7246,1.3125 0,0.47851 0.3008,0.86133 0.3007,0.39648 0.9433,0.65625 0.3692,0.13671 2.1739,0.6289 2.6113,0.69727 3.6367,1.14844 1.039,0.4375 1.6269,1.28516 0.5879,0.84765 0.5879,2.10546 0,1.23047 -0.7246,2.32422 -0.7109,1.08008 -2.0644,1.68164 -1.3536,0.58789 -3.0625,0.58789 -2.8301,0 -4.3204,-1.17578 -1.4765,-1.17578 -1.8867,-3.48633 z"
           style="stroke-width:0.189063"
           id="path5351" />
        <path
           d="m 1724.0596,672.31319 v -2.83008 h 2.4609 v 2.83008 z m 0,17.21289 v -14.51953 h 2.4609 v 14.51953 z"
           style="stroke-width:0.189063"
           id="path5353" />
        <path
           d="m 1729.2822,685.19209 2.4336,-0.38281 q 0.2051,1.46289 1.1348,2.24219 0.9433,0.7793 2.625,0.7793 1.6953,0 2.5156,-0.6836 0.8203,-0.69726 0.8203,-1.62695 0,-0.83398 -0.7246,-1.3125 -0.5058,-0.32813 -2.5156,-0.83398 -2.707,-0.6836 -3.7598,-1.17579 -1.039,-0.50586 -1.5859,-1.38086 -0.5332,-0.88867 -0.5332,-1.95507 0,-0.97071 0.4375,-1.79102 0.4512,-0.83398 1.2168,-1.38086 0.5742,-0.42383 1.5586,-0.71094 0.998,-0.30078 2.1328,-0.30078 1.709,0 2.9941,0.49219 1.2989,0.49219 1.9141,1.33984 0.6152,0.83399 0.8476,2.24219 l -2.4062,0.32813 q -0.1641,-1.1211 -0.957,-1.75 -0.7793,-0.62891 -2.2149,-0.62891 -1.6953,0 -2.4199,0.56055 -0.7246,0.56054 -0.7246,1.3125 0,0.47851 0.3008,0.86133 0.3008,0.39648 0.9433,0.65625 0.3692,0.13671 2.1739,0.6289 2.6113,0.69727 3.6367,1.14844 1.039,0.4375 1.6269,1.28516 0.5879,0.84765 0.5879,2.10546 0,1.23047 -0.7246,2.32422 -0.7109,1.08008 -2.0644,1.68164 -1.3536,0.58789 -3.0625,0.58789 -2.8301,0 -4.3204,-1.17578 -1.4765,-1.17578 -1.8867,-3.48633 z"
           style="stroke-width:0.189063"
           id="path5355" />
      </g>
    </g>
  </g>
</svg>
