<?xml version="1.0" encoding="UTF-8" standalone="no"?>
<!-- Created with Inkscape (http://www.inkscape.org/) -->

<svg
   width="242.66211mm"
   height="47.910088mm"
   viewBox="0 0 242.66211 47.910087"
   version="1.1"
   id="svg5"
   xml:space="preserve"
   xmlns="http://www.w3.org/2000/svg"
   xmlns:svg="http://www.w3.org/2000/svg"><defs
     id="defs2"><rect
       x="212.263"
       y="378.94806"
       width="471.40619"
       height="631.58008"
       id="rect30945" /><rect
       x="212.263"
       y="378.94806"
       width="471.40619"
       height="631.58008"
       id="rect31078" /><rect
       x="212.263"
       y="378.94806"
       width="471.40619"
       height="631.58008"
       id="rect31098" /></defs><g
     id="layer1"
     transform="translate(-326.57593,-32.551872)"><g
       id="g31454"><path
         style="color:#000000;fill:#000000;fill-rule:evenodd;stroke-linecap:round;-inkscape-stroke:none"
         d="m 552.57006,49.805779 -41.83007,0.201172 a 2,2 0 0 0 -1.99024,2.007812 2,2 0 0 0 2.00977,1.990235 l 41.83008,-0.199219 a 2,2 0 0 0 1.99023,-2.007813 2,2 0 0 0 -2.00977,-1.992187 z"
         id="path35906" /><path
         style="color:#000000;fill:#000000;fill-rule:evenodd;stroke-linecap:round;-inkscape-stroke:none"
         d="m 454.37475,49.805779 -41.83009,0.201172 a 2,2 0 0 0 -1.99023,2.007812 2,2 0 0 0 2.00977,1.990235 l 41.83007,-0.199219 a 2,2 0 0 0 1.99024,-2.007813 2,2 0 0 0 -2.00976,-1.992187 z"
         id="path35903" /><path
         style="color:#000000;fill:#000000;fill-rule:evenodd;stroke-linecap:round;-inkscape-stroke:none"
         d="m 406.48216,49.805779 -41.83006,0.201172 a 2,2 0 0 0 -1.99024,2.007812 2,2 0 0 0 2.00977,1.990235 l 41.83007,-0.199219 a 2,2 0 0 0 1.99023,-2.007813 2,2 0 0 0 -2.00977,-1.992187 z"
         id="path35900" /><g
         id="rect10973"
         transform="translate(3.2731888,-12.256721)"><path
           style="color:#000000;fill:#decd87;stroke-width:0.372884;-inkscape-stroke:none"
           d="m 323.4883,45.575195 h 37.90023 V 83.130878 H 323.4883 Z"
           id="path35897" /><path
           style="color:#000000;fill:#ff0000;-inkscape-stroke:none"
           d="m 323.30273,45.388672 v 0.185547 37.742187 h 38.27149 V 45.388672 Z m 0.3711,0.373047 h 37.52734 v 37.183593 h -37.52734 z"
           id="path35894" /></g><g
         id="path5208"
         transform="translate(11.990949,-12.256721)"><path
           style="color:#000000;-inkscape-font-specification:'Arial, Normal';fill:#000000;stroke-width:0.0500229;-inkscape-stroke:none"
           d="m 326.75179,91.476547 -2.05467,-5.303035 h 0.75964 l 1.37822,3.852478 q 0.16639,0.463021 0.27852,0.868164 0.12301,-0.434083 0.28578,-0.868164 l 1.43248,-3.852478 h 0.71623 l -2.07635,5.303035 z"
           id="path35891" /><path
           style="color:#000000;-inkscape-font-specification:'Arial, Normal';fill:#000000;-inkscape-stroke:none"
           d="m 324.66016,86.148437 2.07421,5.353516 h 0.0176 0.73633 l 2.0957,-5.353516 h -0.76953 l -1.43945,3.869141 c -0.0997,0.265927 -0.18432,0.530902 -0.26172,0.796875 -0.0715,-0.251176 -0.15205,-0.513439 -0.25391,-0.796875 l -1.38476,-3.869141 z m 0.0742,0.05078 h 0.70508 l 1.3711,3.835937 c 0.11074,0.308178 0.20474,0.595844 0.27929,0.865235 l 0.0234,0.08594 0.0234,-0.08594 c 0.0818,-0.288709 0.17688,-0.576475 0.28515,-0.865235 l 1.42774,-3.835937 h 0.66211 l -2.05664,5.251953 h -0.68555 z"
           id="path35888" /></g><g
         id="path5210"
         transform="translate(11.990949,-12.256721)"><path
           style="color:#000000;-inkscape-font-specification:'Arial, Normal';fill:#000000;stroke-width:0.0500229;-inkscape-stroke:none"
           d="m 332.31526,90.239414 0.67284,0.0832 q -0.15917,0.589629 -0.58965,0.915191 -0.43045,0.325559 -1.09966,0.325559 -0.84283,0 -1.33842,-0.517278 -0.49197,-0.520899 -0.49197,-1.457794 0,-0.969449 0.49919,-1.504817 0.49922,-0.535369 1.29503,-0.535369 0.77049,0 1.25883,0.524515 0.48834,0.524518 0.48834,1.475881 0,0.05788 -0.004,0.173632 h -2.86493 q 0.0362,0.633037 0.35811,0.96945 0.32194,0.336415 0.80306,0.336415 0.35812,0 0.61132,-0.188103 0.25321,-0.188103 0.40153,-0.60048 z m -2.13786,-1.05265 h 2.14509 q -0.0434,-0.484725 -0.24596,-0.727086 -0.3111,-0.376205 -0.80669,-0.376205 -0.44855,0 -0.75602,0.300241 -0.30385,0.300238 -0.33642,0.80305 z"
           id="path35885" /><path
           style="color:#000000;-inkscape-font-specification:'Arial, Normal';fill:#000000;-inkscape-stroke:none"
           d="m 331.26172,87.523437 c -0.53615,0 -0.97517,0.181209 -1.3125,0.542969 -0.33793,0.362419 -0.50586,0.870893 -0.50586,1.521485 0,0.628974 0.16493,1.121901 0.49805,1.474609 0.33529,0.349966 0.79042,0.525391 1.35742,0.525391 0.45019,0 0.82329,-0.109278 1.11523,-0.330079 0.2916,-0.220528 0.49037,-0.530289 0.59766,-0.927734 l 0.008,-0.0293 -0.70312,-0.08594 h -0.002 -0.0176 l -0.006,0.01563 c -0.0978,0.271792 -0.22892,0.468265 -0.39258,0.589843 -0.16427,0.122036 -0.36134,0.183594 -0.59571,0.183594 -0.31491,0 -0.57483,-0.110298 -0.78515,-0.330078 -0.20353,-0.212694 -0.31336,-0.525303 -0.3418,-0.925781 h 2.85352 l 0.002,-0.02539 c 0.003,-0.07731 0.004,-0.134665 0.004,-0.173828 0,-0.638521 -0.1654,-1.138942 -0.4961,-1.494141 -0.33003,-0.354477 -0.75801,-0.531249 -1.27734,-0.53125 z m 0,0.04883 c 0.50798,0 0.9211,0.172703 1.24219,0.517578 0.32042,0.344158 0.48047,0.829022 0.48046,1.458984 0,0.03283 -0.002,0.08646 -0.004,0.148438 h -2.86524 v 0.02539 c 0.0244,0.425991 0.14554,0.75673 0.36524,0.986328 0.21893,0.228773 0.49569,0.34375 0.82226,0.34375 0.24313,0 0.45167,-0.06459 0.625,-0.193359 0.16897,-0.125517 0.29929,-0.327769 0.39844,-0.59375 l 0.6211,0.07813 c -0.10695,0.371721 -0.29063,0.667911 -0.56446,0.875 -0.28199,0.213277 -0.6419,0.320312 -1.08398,0.320312 -0.55677,0 -0.99482,-0.170028 -1.32031,-0.509765 -0.32284,-0.341824 -0.48438,-0.821188 -0.48438,-1.441406 0,-0.642006 0.16453,-1.136877 0.49219,-1.488282 0.32829,-0.352064 0.75046,-0.527343 1.27539,-0.527343 z m 0.008,0.486328 c -0.30461,0 -0.56411,0.102232 -0.77344,0.30664 -0.20721,0.204751 -0.32173,0.480419 -0.34375,0.820313 l -0.002,0.02539 h 0.0273 2.17188 l -0.002,-0.02734 c -0.0292,-0.326224 -0.11222,-0.57304 -0.25196,-0.740235 -0.21155,-0.255829 -0.48945,-0.384765 -0.82617,-0.384765 z m 0,0.05078 c 0.32407,0 0.58387,0.121411 0.78711,0.367187 0.12531,0.149935 0.19902,0.383967 0.23047,0.685547 h -2.07422 c 0.0262,-0.315649 0.12677,-0.570449 0.31836,-0.759765 0.20063,-0.195913 0.44483,-0.292969 0.73828,-0.292969 z"
           id="path35882" /></g><g
         id="path5212"
         transform="translate(11.990949,-12.256721)"><path
           style="color:#000000;-inkscape-font-specification:'Arial, Normal';fill:#000000;stroke-width:0.0500229;-inkscape-stroke:none"
           d="m 333.79114,91.476547 v -5.303035 h 0.65114 v 5.303035 z"
           id="path35879" /><path
           style="color:#000000;-inkscape-font-specification:'Arial, Normal';fill:#000000;-inkscape-stroke:none"
           d="m 333.76562,86.148437 v 5.353516 h 0.0254 0.67578 v -5.353516 z m 0.0508,0.05078 h 0.60156 v 5.251953 h -0.60156 z"
           id="path35876" /></g><g
         id="path5214"
         transform="translate(11.990949,-12.256721)"><path
           style="color:#000000;-inkscape-font-specification:'Arial, Normal';fill:#000000;stroke-width:0.0500229;-inkscape-stroke:none"
           d="m 335.20914,89.555733 q 0,-1.067117 0.59325,-1.580782 0.49557,-0.426847 1.2082,-0.426847 0.79218,0 1.295,0.520898 0.50281,0.517282 0.50281,1.432473 0,0.741556 -0.22426,1.168403 -0.22066,0.42323 -0.64751,0.658357 -0.42323,0.235127 -0.92604,0.235127 -0.80667,0 -1.30588,-0.517278 -0.49557,-0.517282 -0.49557,-1.490351 z m 0.66921,0 q 0,0.737942 0.32195,1.106911 0.32194,0.365353 0.81029,0.365353 0.48471,0 0.80666,-0.36897 0.32194,-0.368972 0.32194,-1.124998 0,-0.712618 -0.32557,-1.07797 -0.32194,-0.36897 -0.80303,-0.36897 -0.48835,0 -0.81029,0.365353 -0.32195,0.365352 -0.32195,1.103291 z"
           id="path35873" /><path
           style="color:#000000;-inkscape-font-specification:'Arial, Normal';fill:#000000;-inkscape-stroke:none"
           d="m 337.00977,87.523437 c -0.48008,0 -0.88974,0.143208 -1.22461,0.431641 -0.40198,0.348053 -0.60157,0.885517 -0.60157,1.601563 0,0.652958 0.16811,1.155347 0.50391,1.505859 0.33748,0.349696 0.77914,0.525391 1.32227,0.525391 0.3391,0 0.65362,-0.07949 0.93945,-0.238282 0.28852,-0.158932 0.50696,-0.381637 0.65625,-0.667968 0.15228,-0.289844 0.22851,-0.682796 0.22851,-1.179688 0,-0.614707 -0.16942,-1.101031 -0.50976,-1.451172 -0.33977,-0.351987 -0.78085,-0.527343 -1.31445,-0.527344 z m 0,0.04883 c 0.52263,0 0.94668,0.171129 1.27734,0.513671 0.33007,0.339568 0.49609,0.81047 0.49609,1.416016 0,0.491849 -0.074,0.876965 -0.2207,1.15625 -0.14493,0.277974 -0.35807,0.493868 -0.63867,0.648438 -0.27848,0.154709 -0.58276,0.232421 -0.91406,0.232421 -0.53244,10e-7 -0.95898,-0.169757 -1.28711,-0.509765 -0.32496,-0.339197 -0.48829,-0.82819 -0.48829,-1.472656 0,-0.706776 0.19497,-1.225668 0.58399,-1.5625 0.32589,-0.280696 0.72131,-0.421875 1.19141,-0.421875 z m 0,0.490234 c -0.33181,0 -0.60936,0.124772 -0.82813,0.373047 -0.22015,0.249834 -0.32812,0.625497 -0.32812,1.121094 0,0.495598 0.10806,0.870843 0.32812,1.123046 0.21877,0.248275 0.49632,0.373047 0.82813,0.373047 0.32948,0 0.60745,-0.126288 0.82617,-0.376953 0.22019,-0.252357 0.32812,-0.635011 0.32812,-1.142578 0,-0.478887 -0.10961,-0.844152 -0.33203,-1.09375 -0.21868,-0.25063 -0.49514,-0.376953 -0.82226,-0.376953 z m 0,0.04883 c 0.31433,0 0.57458,0.119999 0.78515,0.361328 0.21167,0.237538 0.31836,0.589278 0.31836,1.060547 0,0.500467 -0.10539,0.869771 -0.31445,1.109375 -0.21055,0.241295 -0.47227,0.361328 -0.78906,0.361328 -0.31933,0 -0.58054,-0.11856 -0.79102,-0.357422 -0.2092,-0.239755 -0.31445,-0.60152 -0.31445,-1.089843 0,-0.488322 0.10534,-0.85059 0.31445,-1.087891 0.21048,-0.238862 0.47169,-0.357422 0.79102,-0.357422 z"
           id="path35870" /></g><g
         id="path5216"
         transform="translate(11.990949,-12.256721)"><path
           style="color:#000000;-inkscape-font-specification:'Arial, Normal';fill:#000000;stroke-width:0.0500229;-inkscape-stroke:none"
           d="m 339.1376,91.476547 1.40351,-1.996778 -1.29863,-1.844847 h 0.81391 l 0.58962,0.900718 q 0.1664,0.256834 0.26768,0.430467 0.15918,-0.238747 0.29303,-0.42323 l 0.64749,-0.907955 h 0.77774 l -1.32757,1.808676 1.42885,2.032949 h -0.79944 l -0.78859,-1.193726 -0.20979,-0.321945 -1.00925,1.515671 z"
           id="path35867" /><path
           style="color:#000000;-inkscape-font-specification:'Arial, Normal';fill:#000000;-inkscape-stroke:none"
           d="m 339.19336,87.609375 1.31641,1.871094 -1.41993,2.021484 h 0.0469 0.80273 l 0.9961,-1.494141 0.18945,0.289063 0.79492,1.205078 h 0.86133 l -1.44531,-2.058594 1.3457,-1.833984 h -0.83984 l -0.65625,0.919922 c -0.0822,0.113347 -0.17317,0.246877 -0.26953,0.390625 -0.0657,-0.111306 -0.1454,-0.24 -0.24805,-0.398438 h -0.002 l -0.59571,-0.912109 z m 0.0977,0.05078 h 0.75195 l 0.58203,0.888672 c 0.11079,0.171007 0.20036,0.314446 0.26758,0.429688 l 0.0195,0.03516 0.0215,-0.0332 c 0.10598,-0.158947 0.20398,-0.301176 0.29297,-0.423828 l 0.64063,-0.896485 h 0.71484 l -1.30859,1.783203 1.41211,2.007813 h -0.73828 l -0.78125,-1.181641 -0.23047,-0.353515 -1.02344,1.535156 h -0.72656 l 1.38672,-1.970703 z"
           id="path35864" /></g><g
         id="rect10757"
         transform="translate(1.5500298,-12.256721)"><path
           style="color:#000000;fill:#ffcc00;stroke-width:0.25866;-inkscape-stroke:none"
           d="m 390.9775,44.938623 h 24.48255 c 5.14957,0 9.29524,4.145676 9.29524,9.295237 v 19.658892 c 0,5.149562 -4.14567,9.295238 -9.29524,9.295238 H 390.9775 c -5.14956,0 -9.29524,-4.145676 -9.29524,-9.295238 V 54.23386 c 0,-5.149561 4.14568,-9.295237 9.29524,-9.295237 z"
           id="path35861" /><path
           style="color:#000000;fill:#ff0000;-inkscape-stroke:none"
           d="m 390.97656,44.808594 c -5.21896,0 -9.42383,4.206813 -9.42383,9.425781 v 19.658203 c 0,5.218969 4.20487,9.423828 9.42383,9.423828 h 24.48438 c 5.21897,0 9.42383,-4.204859 9.42383,-9.423828 V 54.234375 c 0,-5.218967 -4.20486,-9.425781 -9.42383,-9.425781 z m 0,0.259765 h 24.48438 c 5.08015,0 9.16406,4.085872 9.16406,9.166016 v 19.658203 c 0,5.080145 -4.08391,9.166016 -9.16406,9.166016 h -24.48438 c -5.08014,0 -9.16406,-4.085871 -9.16406,-9.166016 V 54.234375 c 0,-5.080144 4.08392,-9.166016 9.16406,-9.166016 z"
           id="path35858" /></g><g
         aria-label="Box
Prompts"
         transform="matrix(0.26458333,0,0,0.26458333,286.09982,-75.436156)"
         id="text2969"
         style="font-size:28px;font-family:Bahnschrift;-inkscape-font-specification:Bahnschrift;white-space:pre;fill:#1a1a1a;stroke-width:1.03559"><path
           d="m 428.36719,466.24486 h 5.38672 q 2.11914,0 3.08984,-0.80664 0.9707,-0.80664 0.9707,-2.26953 v -0.041 q 0,-1.01172 -0.35547,-1.73632 -0.34179,-0.72461 -1.09375,-1.10743 -0.75195,-0.39648 -1.92773,-0.39648 h -6.07031 v -2.51563 h 6.07031 q 1.54492,0 2.32422,-0.72461 0.79297,-0.7246 0.79297,-2.14648 v 0 q 0,-1.49023 -0.875,-2.22852 -0.875,-0.73828 -2.625,-0.73828 h -5.6875 v -2.58398 h 6.19336 q 1.92773,0 3.22656,0.65625 1.29883,0.65625 1.94141,1.85937 0.64257,1.20313 0.64257,2.8711 v 0 q 0,1.02539 -0.39648,1.92773 -0.39649,0.88867 -1.2168,1.53125 -0.80664,0.62891 -2.00976,0.84766 1.20312,0.17773 2.07812,0.86133 0.875,0.66992 1.33985,1.68164 0.46484,1.01172 0.46484,2.1875 v 0.041 q 0,1.61328 -0.71094,2.84375 -0.71094,1.23047 -2.03711,1.90039 -1.32617,0.66993 -3.08984,0.66993 h -6.42578 z m -1.64063,-17.29492 h 2.77539 v 19.87891 h -2.77539 z"
           id="path35855" /><path
           d="m 449.96875,469.03392 q -1.8457,0 -3.1582,-0.72461 -1.3125,-0.72461 -2.00977,-2.10546 -0.68359,-1.39454 -0.68359,-3.34961 v -2.31055 q 0,-1.92774 0.68359,-3.29492 0.69727,-1.38086 2.00977,-2.0918 1.3125,-0.72461 3.1582,-0.72461 1.8457,0 3.1582,0.72461 1.3125,0.71094 1.9961,2.0918 0.69726,1.36718 0.69726,3.29492 v 2.35156 q 0,1.94141 -0.69726,3.32227 -0.6836,1.36718 -1.9961,2.09179 -1.3125,0.72461 -3.1582,0.72461 z m 0,-2.65234 q 1.46289,0 2.25586,-0.91602 0.80664,-0.91601 0.80664,-2.57031 v -2.35156 q 0,-1.6543 -0.80664,-2.55664 -0.79297,-0.90235 -2.25586,-0.90235 -1.46289,0 -2.26953,0.90235 -0.79297,0.90234 -0.79297,2.55664 v 2.35156 q 0,1.6543 0.79297,2.57031 0.80664,0.91602 2.26953,0.91602 z"
           id="path35852" /><path
           d="m 463.44922,462.37572 -5.22266,-7.73828 h 3.10352 l 4.07422,6.35742 5.37304,7.83399 h -3.08984 z m -0.082,-1.38086 1.33984,2.57031 -3.60937,5.26368 h -3.08985 z m 0.98437,-1.32617 3.10352,-5.03125 h 3.10351 l -5.03125,7.65625 z"
           id="path35849" /><path
           d="m 398.58984,496.75215 h 6.35743 q 0.90234,0 1.58593,-0.42382 0.6836,-0.42383 1.05274,-1.20313 0.38281,-0.7793 0.38281,-1.79101 v 0 q 0,-1.02539 -0.38281,-1.80469 -0.36914,-0.7793 -1.05274,-1.20313 -0.68359,-0.4375 -1.58593,-0.4375 h -6.35743 v -2.65234 h 6.26172 q 1.77735,0 3.13086,0.76562 1.35352,0.75196 2.0918,2.13282 0.75195,1.38086 0.75195,3.19922 v 0 q 0,1.81836 -0.75195,3.19921 -0.73828,1.36719 -2.0918,2.11915 -1.35351,0.75195 -3.13086,0.75195 h -6.26172 z m -1.43554,-9.51562 h 2.78906 v 19.87891 h -2.78906 z"
           id="path35846" /><path
           d="m 413.62891,492.92403 h 2.78906 v 14.19141 h -2.78906 z m 7.80664,3.36328 q -0.36914,-0.45117 -0.92969,-0.68359 -0.56055,-0.23242 -1.29883,-0.23242 -1.32617,0 -2.06445,0.73828 -0.72461,0.72461 -0.72461,2.02343 l -0.28711,-2.73437 q 0.65625,-1.27149 1.69531,-1.96875 1.03906,-0.71094 2.29688,-0.71094 0.9707,0 1.75,0.28711 0.79297,0.27344 1.38086,0.82031 z"
           id="path35843" /><path
           d="m 430.74609,507.32051 q -1.8457,0 -3.1582,-0.72461 -1.3125,-0.7246 -2.00977,-2.10546 -0.68359,-1.39454 -0.68359,-3.34961 v -2.31055 q 0,-1.92773 0.68359,-3.29492 0.69727,-1.38086 2.00977,-2.0918 1.3125,-0.72461 3.1582,-0.72461 1.84571,0 3.15821,0.72461 1.3125,0.71094 1.99609,2.0918 0.69727,1.36719 0.69727,3.29492 v 2.35156 q 0,1.94141 -0.69727,3.32227 -0.68359,1.36719 -1.99609,2.09179 -1.3125,0.72461 -3.15821,0.72461 z m 0,-2.65234 q 1.46289,0 2.25586,-0.91602 0.80664,-0.91601 0.80664,-2.57031 v -2.35156 q 0,-1.6543 -0.80664,-2.55664 -0.79297,-0.90234 -2.25586,-0.90234 -1.46289,0 -2.26953,0.90234 -0.79297,0.90234 -0.79297,2.55664 v 2.35156 q 0,1.6543 0.79297,2.57031 0.80664,0.91602 2.26953,0.91602 z"
           id="path35840" /><path
           d="m 457.51562,498.51583 q 0,-1.50391 -0.77929,-2.32422 -0.7793,-0.82031 -2.1875,-0.82031 -1.29883,0 -2.00977,0.79296 -0.71094,0.79297 -0.71094,2.24219 l -0.56054,-2.73437 q 0.66992,-1.40821 1.76367,-2.17383 1.10742,-0.7793 2.43359,-0.7793 1.53125,0 2.61133,0.6836 1.09375,0.66992 1.6543,1.96875 0.57422,1.29882 0.57422,3.13085 v 8.61329 h -2.78907 z m -16.95312,-5.5918 h 2.78906 v 14.19141 h -2.78906 z m 8.47656,5.5918 q 0,-1.50391 -0.73828,-2.32422 -0.73828,-0.82031 -2.0918,-0.82031 -1.36718,0 -2.11914,0.7246 -0.73828,0.72461 -0.73828,2.03711 l -0.28711,-2.73437 q 0.65625,-1.28516 1.70899,-1.98242 1.0664,-0.69727 2.35156,-0.69727 1.49023,0 2.54297,0.6836 1.05273,0.66992 1.59961,1.96875 0.56054,1.29882 0.56054,3.13085 v 8.61329 h -2.78906 z"
           id="path35837" /><path
           d="m 464.54297,492.92403 h 2.78906 v 19.96094 h -2.78906 z m 6.35742,14.39648 q -1.32617,0 -2.31055,-0.6289 -0.98437,-0.64258 -1.44922,-1.80469 l 0.19141,-2.9668 q 0,0.91602 0.32813,1.5586 0.32812,0.64258 0.94336,0.98437 0.6289,0.3418 1.51757,0.3418 1.38086,0 2.13282,-0.83399 0.76562,-0.84765 0.76562,-2.3789 v -3.07617 q 0,-1.5586 -0.76562,-2.41993 -0.75196,-0.86132 -2.13282,-0.86132 -0.88867,0 -1.51757,0.32812 -0.61524,0.32813 -0.94336,0.9707 -0.32813,0.62891 -0.32813,1.51758 l -0.28711,-2.73437 q 0.64258,-1.24414 1.68164,-1.91406 1.03906,-0.6836 2.31055,-0.6836 1.50391,0 2.57031,0.6836 1.08008,0.66992 1.64063,1.96875 0.56054,1.29882 0.56054,3.13085 v 3.08985 q 0,1.80469 -0.57422,3.08984 -0.57421,1.28516 -1.68164,1.96875 -1.10742,0.66992 -2.65234,0.66992 z"
           id="path35834" /><path
           d="m 483.46484,507.1838 q -1.72265,0 -2.52929,-0.94336 -0.79297,-0.95704 -0.79297,-2.81641 v -14.62891 h 2.78906 v 14.65625 q 0,0.51953 0.20508,0.80664 0.20508,0.27344 0.60156,0.27344 h 1.33984 v 2.65235 z m -4.78515,-14.25977 h 6.39843 v 2.51562 h -6.39843 z"
           id="path35831" /><path
           d="m 493.92383,507.32051 q -1.25781,0 -2.36524,-0.24609 -1.09375,-0.24609 -2.05078,-0.73828 -0.95703,-0.49219 -1.76367,-1.23047 v 0 l 1.6543,-2.03711 v 0 q 1.14843,0.875 2.2832,1.3125 1.13477,0.4375 2.24219,0.4375 1.65429,0 2.47461,-0.50586 0.83398,-0.51953 0.83398,-1.54492 0,-0.68359 -0.45117,-1.02539 -0.45117,-0.3418 -1.12109,-0.45117 -0.66993,-0.12305 -1.88672,-0.21875 -0.10938,0 -0.23242,0 -0.12305,-0.0137 -0.23243,-0.0274 -0.0547,0 -0.10937,0 -0.0547,-0.0137 -0.10938,-0.0137 -1.38086,-0.10937 -2.33789,-0.39648 -0.95703,-0.30078 -1.59961,-1.10742 -0.6289,-0.80665 -0.6289,-2.31055 0,-1.50391 0.61523,-2.50195 0.61524,-0.99805 1.83203,-1.49024 1.2168,-0.50586 3.04883,-0.50586 1.10742,0 2.10547,0.20508 1.01172,0.20508 1.92773,0.61523 0.91602,0.39649 1.76368,1.01172 v 0 l -1.68164,2.03711 v 0 q -1.06641,-0.68359 -2.10547,-1.02539 -1.02539,-0.3418 -2.00977,-0.3418 -1.42187,0 -2.13281,0.49219 -0.71094,0.47852 -0.71094,1.44922 0,0.57422 0.39649,0.86133 0.41015,0.28711 1.02539,0.38281 0.61523,0.0957 1.75,0.16406 0.082,0.0137 0.16406,0.0137 0.0957,0 0.1914,0.0137 0.041,0 0.082,0 0.041,0 0.082,0.0137 1.49023,0.0957 2.52929,0.39648 1.05274,0.30079 1.76368,1.18946 0.71093,0.88867 0.71093,2.57031 0,1.53125 -0.65625,2.54297 -0.65625,0.99805 -1.98242,1.5039 -1.3125,0.50586 -3.30859,0.50586 z"
           id="path35828" /></g><g
         id="path5277"
         transform="translate(1.5500298,-12.256721)"><path
           style="color:#000000;-inkscape-font-specification:'Arial, Normal';fill:#000000;stroke-width:0.0500229;-inkscape-stroke:none"
           d="m 391.23087,91.915147 v -2.246376 l -2.0438,-3.056659 h 0.8537 l 1.04542,1.598869 q 0.28938,0.448551 0.53899,0.897101 0.23873,-0.415994 0.57877,-0.936892 l 1.02733,-1.559078 h 0.81751 l -2.11614,3.056659 v 2.246376 z"
           id="path35825" /><path
           style="color:#000000;-inkscape-font-specification:'Arial, Normal';fill:#000000;-inkscape-stroke:none"
           d="m 389.14062,86.587891 2.06446,3.08789 v 2.263672 h 0.0254 0.72656 v -2.263672 l 2.13867,-3.08789 h -0.87695 l -1.03516,1.570312 c -0.21841,0.334584 -0.40266,0.632357 -0.55859,0.902344 -0.16113,-0.287746 -0.33197,-0.575585 -0.51758,-0.863281 l -1.05273,-1.609375 z m 0.0918,0.04883 h 0.79492 l 1.03711,1.58789 c 0.19264,0.298595 0.37293,0.597945 0.53907,0.896485 l 0.0215,0.03711 0.0215,-0.03711 c 0.15885,-0.276792 0.35164,-0.588591 0.57813,-0.935547 l 1.01953,-1.548828 H 394 l -2.0918,3.023437 v 2.230469 h -0.65234 v -2.228516 z"
           id="path35822" /></g><g
         id="path5279"
         transform="translate(1.5500298,-12.256721)"><path
           style="color:#000000;-inkscape-font-specification:'Arial, Normal';fill:#000000;stroke-width:0.0500229;-inkscape-stroke:none"
           d="m 394.46479,89.332359 q 0,-1.320332 0.70901,-2.065507 0.709,-0.748792 1.83036,-0.748792 0.73432,0 1.32395,0.350883 0.58965,0.350885 0.89712,0.980302 0.31109,0.625803 0.31109,1.42162 0,0.806669 -0.32556,1.443323 -0.32557,0.636653 -0.92242,0.965832 -0.59688,0.325562 -1.28778,0.325562 -0.7488,0 -1.33842,-0.361736 -0.58963,-0.361735 -0.8935,-0.987536 -0.30385,-0.625803 -0.30385,-1.323951 z m 0.72348,0.01085 q 0,0.958596 0.51366,1.512051 0.51726,0.549836 1.295,0.549836 0.79219,0 1.30226,-0.557069 0.51366,-0.557073 0.51366,-1.580783 0,-0.647506 -0.22066,-1.128614 -0.21704,-0.484725 -0.64027,-0.748792 -0.41963,-0.267684 -0.94414,-0.267684 -0.74517,0 -1.28415,0.513664 -0.53536,0.510048 -0.53536,1.707391 z"
           id="path35819" /><path
           style="color:#000000;-inkscape-font-specification:'Arial, Normal';fill:#000000;-inkscape-stroke:none"
           d="m 397.00391,86.492187 c -0.75314,0 -1.37047,0.253839 -1.84766,0.757813 -0.47776,0.502127 -0.7168,1.197334 -0.7168,2.082031 0,0.46906 0.10248,0.915449 0.30664,1.335938 0.20453,0.421215 0.50541,0.75453 0.90235,0.998047 0.3971,0.243625 0.84833,0.365234 1.35156,0.365234 0.46453,0 0.8993,-0.111094 1.30078,-0.330078 0.40219,-0.221817 0.71257,-0.548167 0.93164,-0.976563 0.21899,-0.428248 0.32813,-0.911981 0.32813,-1.453125 0,-0.533803 -0.10323,-1.012608 -0.3125,-1.433593 -0.20695,-0.42363 -0.50915,-0.753928 -0.90625,-0.990235 -0.39701,-0.236255 -0.84436,-0.355469 -1.33789,-0.355469 z m 0,0.05078 c 0.48556,0 0.92138,0.116068 1.31054,0.347656 0.3891,0.231539 0.68566,0.553158 0.88867,0.96875 v 0.002 c 0.20552,0.413417 0.3086,0.882871 0.3086,1.410156 0,0.534414 -0.10718,1.011018 -0.32227,1.431641 -0.21502,0.420474 -0.52045,0.73799 -0.91406,0.955078 -0.39436,0.215099 -0.81872,0.322266 -1.27539,0.322266 -0.49517,0 -0.93516,-0.118733 -1.32422,-0.357422 -0.38924,-0.238796 -0.68413,-0.56533 -0.88476,-0.978516 -0.20097,-0.413914 -0.30079,-0.850697 -0.30079,-1.3125 0,-0.875743 0.23359,-1.557389 0.70118,-2.048828 0.46814,-0.494414 1.07049,-0.740234 1.8125,-0.740234 z m 0.004,0.554687 c -0.50252,0 -0.93729,0.173118 -1.30078,0.519531 -0.36398,0.346774 -0.54297,0.924607 -0.54297,1.726563 0,0.643531 0.1722,1.15505 0.51953,1.529297 0.34913,0.371113 0.78812,0.55664 1.3125,0.55664 0.53399,0 0.97787,-0.188317 1.32227,-0.564453 0.34761,-0.376994 0.51953,-0.911 0.51953,-1.597656 0,-0.434511 -0.0738,-0.814069 -0.22266,-1.138672 -0.14647,-0.327138 -0.36403,-0.581099 -0.65039,-0.759765 -0.28373,-0.180997 -0.6031,-0.271485 -0.95703,-0.271485 z m 0,0.04883 c 0.34542,0 0.65392,0.08776 0.92969,0.263672 h 0.002 c 0.27795,0.173423 0.48796,0.41912 0.63086,0.738281 0.14534,0.316874 0.2168,0.690312 0.2168,1.119141 0,0.67829 -0.1686,1.198685 -0.50586,1.564453 -0.33569,0.366623 -0.76289,0.548828 -1.28516,0.548828 -0.51259,0 -0.93483,-0.180968 -1.27539,-0.542968 -0.33754,-0.363693 -0.50781,-0.859545 -0.50781,-1.494141 0,-0.7945 0.17751,-1.356164 0.52734,-1.689453 0.35516,-0.338471 0.77655,-0.507813 1.26758,-0.507813 z"
           id="path35816" /></g><g
         id="path5281"
         transform="translate(1.5500298,-12.256721)"><path
           style="color:#000000;-inkscape-font-specification:'Arial, Normal';fill:#000000;stroke-width:0.0500229;-inkscape-stroke:none"
           d="m 400.4117,91.915147 v -5.303035 h 0.70178 v 4.677232 h 2.61173 v 0.625803 z"
           id="path35813" /><path
           style="color:#000000;-inkscape-font-specification:'Arial, Normal';fill:#000000;-inkscape-stroke:none"
           d="m 400.38672,86.587891 v 5.351562 h 0.0254 3.33789 v -0.675781 h -2.61133 v -4.675781 z m 0.0508,0.04883 h 0.65039 v 4.677734 h 2.61328 v 0.576172 h -3.26367 z"
           id="path35810" /></g><g
         id="path5283"
         transform="translate(1.5500298,-12.256721)"><path
           style="color:#000000;-inkscape-font-specification:'Arial, Normal';fill:#000000;stroke-width:0.0500229;-inkscape-stroke:none"
           d="m 404.34738,89.332359 q 0,-1.320332 0.709,-2.065507 0.709,-0.748792 1.83039,-0.748792 0.73432,0 1.32395,0.350883 0.58962,0.350885 0.89709,0.980302 0.3111,0.625803 0.3111,1.42162 0,0.806669 -0.32557,1.443323 -0.32554,0.636653 -0.92242,0.965832 -0.59684,0.325562 -1.28778,0.325562 -0.74877,0 -1.33842,-0.361736 -0.58962,-0.361735 -0.89347,-0.987536 -0.30387,-0.625803 -0.30387,-1.323951 z m 0.72347,0.01085 q 0,0.958596 0.51366,1.512051 0.51729,0.549836 1.29503,0.549836 0.79219,0 1.30223,-0.557069 0.51366,-0.557073 0.51366,-1.580783 0,-0.647506 -0.22063,-1.128614 -0.21707,-0.484725 -0.6403,-0.748792 -0.4196,-0.267684 -0.94411,-0.267684 -0.74517,0 -1.28415,0.513664 -0.53539,0.510048 -0.53539,1.707391 z"
           id="path35807" /><path
           style="color:#000000;-inkscape-font-specification:'Arial, Normal';fill:#000000;-inkscape-stroke:none"
           d="m 406.88672,86.492187 c -0.75316,0 -1.37046,0.253838 -1.84766,0.757813 -0.47775,0.502127 -0.71679,1.197334 -0.71679,2.082031 0,0.469061 0.10246,0.915449 0.30664,1.335938 0.20451,0.421215 0.50541,0.75453 0.90234,0.998047 0.39712,0.243624 0.84836,0.365234 1.35156,0.365234 0.46456,0 0.89933,-0.111094 1.30078,-0.330078 0.40221,-0.221817 0.71259,-0.548167 0.93164,-0.976563 0.219,-0.428248 0.32813,-0.911981 0.32813,-1.453125 0,-0.533803 -0.10322,-1.012607 -0.3125,-1.433593 -0.20694,-0.42363 -0.51112,-0.753928 -0.9082,-0.990235 -0.39701,-0.236255 -0.84241,-0.355469 -1.33594,-0.355469 z m 0,0.05078 c 0.48556,0 0.92138,0.116068 1.31055,0.347656 0.38907,0.231539 0.68565,0.553158 0.88867,0.96875 v 0.002 c 0.20552,0.413417 0.30859,0.882871 0.30859,1.410156 0,0.534414 -0.10912,1.011018 -0.32422,1.431641 -0.215,0.420474 -0.51847,0.73799 -0.91211,0.955078 -0.39433,0.215098 -0.81869,0.322266 -1.27539,0.322266 -0.49515,0 -0.93514,-0.118733 -1.32422,-0.357422 -0.38923,-0.238796 -0.68414,-0.56533 -0.88476,-0.978516 -0.20099,-0.413914 -0.30078,-0.850697 -0.30078,-1.3125 0,-0.875743 0.23359,-1.557389 0.70117,-2.048828 0.46814,-0.494414 1.07047,-0.740234 1.8125,-0.740234 z m 0.004,0.554687 c -0.50252,0 -0.93729,0.173118 -1.30078,0.519531 -0.364,0.346774 -0.54492,0.924607 -0.54492,1.726563 0,0.643531 0.17415,1.15505 0.52149,1.529297 0.34914,0.371113 0.78811,0.55664 1.3125,0.55664 0.53332,0 0.97611,-0.189254 1.32031,-0.564453 0.34761,-0.376994 0.52148,-0.911 0.52148,-1.597656 0,-0.434511 -0.0738,-0.814069 -0.22265,-1.138672 -0.1465,-0.327137 -0.36404,-0.581099 -0.65039,-0.759765 -0.28372,-0.180998 -0.60311,-0.271485 -0.95704,-0.271485 z m 0,0.04883 c 0.34542,0 0.65394,0.08776 0.92969,0.263672 0.27795,0.173423 0.48793,0.419119 0.63086,0.738281 0.14532,0.316874 0.21875,0.690312 0.21875,1.119141 0,0.67829 -0.16859,1.198685 -0.50586,1.564453 -0.33567,0.366622 -0.76289,0.548828 -1.28515,0.548828 -0.5126,0 -0.93482,-0.180968 -1.27539,-0.542968 -0.33755,-0.363693 -0.50782,-0.859545 -0.50782,-1.494141 0,-0.7945 0.1775,-1.356163 0.52735,-1.689453 0.35515,-0.338471 0.77654,-0.507813 1.26757,-0.507813 z"
           id="path35804" /></g><g
         id="path5285"
         transform="translate(1.5500298,-12.256721)"><path
           style="color:#000000;-inkscape-font-specification:'Arial, Normal';fill:#000000;stroke-width:0.0500229;-inkscape-stroke:none"
           d="m 411.30716,91.915147 -1.4614,-3.841625 h 0.68731 l 0.82473,2.300634 q 0.13385,0.372586 0.24599,0.774112 0.0868,-0.303858 0.24235,-0.730705 l 0.85371,-2.344041 h 0.66921 l -1.45418,3.841625 z"
           id="path35801" /><path
           style="color:#000000;-inkscape-font-specification:'Arial, Normal';fill:#000000;-inkscape-stroke:none"
           d="m 409.80859,88.048828 1.48047,3.890625 h 0.0176 0.625 l 1.47266,-3.890625 h -0.72266 l -0.85937,2.359375 c -0.0936,0.25689 -0.16232,0.469572 -0.21875,0.660156 -0.0691,-0.241557 -0.14157,-0.477387 -0.22266,-0.703125 l -0.83008,-2.316406 z m 0.0723,0.04883 h 0.63476 l 0.81836,2.285156 c 0.089,0.247792 0.17149,0.504354 0.2461,0.771485 l 0.0234,0.08594 0.0234,-0.08594 c 0.0576,-0.201752 0.13863,-0.444339 0.24219,-0.728516 l 0.84766,-2.328125 h 0.61718 l -1.43554,3.792969 h -0.57422 z"
           id="path35798" /></g><g
         id="path5287"
         transform="translate(1.5500298,-12.256721)"><path
           style="color:#000000;-inkscape-font-specification:'Arial, Normal';fill:#000000;stroke-width:0.0500229;-inkscape-stroke:none"
           d="m 414.76534,89.039354 q -0.40513,-0.148312 -0.60047,-0.42323 -0.19534,-0.274918 -0.19534,-0.658357 0,-0.578776 0.41601,-0.973069 0.416,-0.39429 1.10691,-0.39429 0.69453,0 1.11775,0.405143 0.42323,0.401526 0.42323,0.980302 0,0.36897 -0.19534,0.643888 -0.19172,0.271301 -0.586,0.419613 0.48834,0.159163 0.74155,0.513662 0.25683,0.354502 0.25683,0.84646 0,0.680064 -0.48109,1.143085 -0.48112,0.463021 -1.26609,0.463021 -0.78496,0 -1.26605,-0.463021 -0.48112,-0.46664 -0.48112,-1.161171 0,-0.517279 0.26045,-0.864545 0.26406,-0.350885 0.74877,-0.477491 z m -0.1302,-1.103291 q 0,0.376203 0.24236,0.61495 0.24236,0.238744 0.62942,0.238744 0.37621,0 0.61494,-0.235127 0.24236,-0.238747 0.24236,-0.582393 0,-0.358119 -0.24958,-0.600483 -0.24598,-0.245978 -0.61497,-0.245978 -0.37259,0 -0.61857,0.238744 -0.24596,0.238745 -0.24596,0.571543 z m -0.20981,2.448946 q 0,0.278535 0.13023,0.538985 0.13382,0.260448 0.39428,0.405144 0.26045,0.141075 0.5607,0.141075 0.46662,0 0.7705,-0.300241 0.30384,-0.300238 0.30384,-0.763259 0,-0.470257 -0.31472,-0.777732 -0.31107,-0.307475 -0.78134,-0.307475 -0.45939,0 -0.76324,0.303858 -0.30025,0.303858 -0.30025,0.759645 z"
           id="path35795" /><path
           style="color:#000000;-inkscape-font-specification:'Arial, Normal';fill:#000000;-inkscape-stroke:none"
           d="m 415.49219,86.564453 c -0.46537,0 -0.8407,0.134728 -1.12305,0.402344 -0.28177,0.267065 -0.42383,0.598391 -0.42383,0.990234 0,0.259873 0.0658,0.486074 0.19922,0.673828 0.12646,0.177982 0.32648,0.309004 0.57813,0.408203 -0.30499,0.0885 -0.55568,0.235817 -0.72657,0.462891 -0.17721,0.236279 -0.26562,0.529856 -0.26562,0.878906 0,0.468796 0.16504,0.864277 0.49023,1.179688 0.32563,0.313393 0.75498,0.470703 1.28321,0.470703 0.52823,0 0.95756,-0.15731 1.2832,-0.470703 0.32513,-0.312923 0.48828,-0.700883 0.48828,-1.160156 0,-0.332325 -0.0873,-0.620543 -0.26172,-0.861329 -0.16427,-0.229983 -0.41115,-0.39165 -0.71875,-0.5 0.24465,-0.09908 0.44048,-0.228854 0.56445,-0.404296 0.13329,-0.187586 0.19922,-0.40781 0.19922,-0.658204 0,-0.391946 -0.14513,-0.728186 -0.43164,-1 -0.28708,-0.274821 -0.66688,-0.412109 -1.13476,-0.412109 z m 0,0.05078 c 0.45815,0 0.82435,0.133069 1.10156,0.398438 0.2778,0.263554 0.41406,0.583137 0.41406,0.96289 0,0.241566 -0.0623,0.449935 -0.18945,0.628907 -0.12439,0.176022 -0.31482,0.31258 -0.57422,0.410156 l -0.0684,0.02539 0.0684,0.02148 c 0.32157,0.104808 0.5631,0.274275 0.72852,0.505859 0.16799,0.231883 0.25195,0.508412 0.25195,0.832032 0,0.447477 -0.15634,0.820562 -0.47266,1.125 -0.31585,0.303967 -0.72965,0.455078 -1.24804,0.455078 -0.51839,0 -0.93417,-0.151111 -1.25,-0.455078 -0.3163,-0.306776 -0.47266,-0.687287 -0.47266,-1.144532 0,-0.340654 0.0858,-0.622867 0.25586,-0.849609 0.17249,-0.229203 0.41563,-0.38354 0.73437,-0.466797 l 0.0781,-0.02148 -0.0762,-0.02734 c -0.26662,-0.09761 -0.46117,-0.235708 -0.58789,-0.414063 -0.12705,-0.178802 -0.19141,-0.393152 -0.19141,-0.644531 0,-0.379857 0.1353,-0.696419 0.4082,-0.955078 0.27232,-0.258104 0.634,-0.386719 1.08985,-0.386719 z m 0.008,0.486328 c -0.25374,10e-7 -0.4682,0.08058 -0.63672,0.244141 -0.16814,0.163209 -0.25391,0.361817 -0.25391,0.589844 0,0.256173 0.0838,0.469039 0.25,0.632812 0.16632,0.163834 0.38526,0.246094 0.64844,0.246094 0.25602,0 0.46703,-0.08083 0.63086,-0.242187 0.16585,-0.163375 0.25,-0.364633 0.25,-0.59961 0,-0.244556 -0.085,-0.453275 -0.25586,-0.61914 -0.16841,-0.168407 -0.38126,-0.251954 -0.63281,-0.251954 z m 0,0.04883 c 0.24044,0 0.43809,0.07872 0.59766,0.238281 v 0.002 c 0.16197,0.157287 0.24218,0.349096 0.24218,0.582031 0,0.223217 -0.079,0.409499 -0.23632,0.564453 -0.15448,0.152142 -0.35011,0.228516 -0.59571,0.228516 -0.25289,0 -0.45645,-0.07793 -0.61328,-0.232422 -0.15689,-0.154555 -0.23437,-0.352225 -0.23437,-0.597656 0,-0.215704 0.0785,-0.397617 0.23828,-0.552735 0.15946,-0.154766 0.35851,-0.232421 0.60156,-0.232421 z m -0.0117,2.146484 c -0.31177,0 -0.57423,0.103519 -0.78125,0.310547 -0.20456,0.207019 -0.30664,0.467994 -0.30664,0.777344 0,0.189587 0.0444,0.373958 0.13281,0.550781 0.0914,0.177824 0.22668,0.317341 0.4043,0.416015 0.17717,0.09597 0.36818,0.144532 0.57227,0.144532 0.31644,0 0.58192,-0.103935 0.78906,-0.308594 0.20713,-0.204677 0.31054,-0.467099 0.31054,-0.78125 0,-0.319084 -0.10789,-0.585485 -0.32226,-0.794922 -0.21186,-0.209413 -0.47986,-0.314453 -0.79883,-0.314453 z m 0,0.04883 c 0.30806,0 0.56078,0.100228 0.76367,0.300781 0.20526,0.200529 0.3086,0.451841 0.3086,0.759766 0,0.303209 -0.0989,0.550454 -0.29688,0.746094 -0.19803,0.195662 -0.44819,0.292968 -0.7539,0.292968 -0.1956,0 -0.37727,-0.04716 -0.54688,-0.138671 -0.16966,-0.09425 -0.29771,-0.225092 -0.38477,-0.394532 -0.0852,-0.170443 -0.12695,-0.345552 -0.12695,-0.527343 0,-0.298366 0.0972,-0.544064 0.29297,-0.742188 0.19811,-0.198115 0.4434,-0.296875 0.74414,-0.296875 z"
           id="path35792" /></g><g
         id="g14067"
         transform="translate(-8.0979492,10.33641)"><g
           id="g14038"><g
             id="rect10759"
             transform="matrix(0.8582852,0,0,1,75.404122,-22.593131)"><path
               style="color:#000000;fill:#ff9955;stroke-width:0.278376;-inkscape-stroke:none"
               d="m 440.0422,45.966995 h 77.10591 c 0.11559,0 0.20865,0.09305 0.20865,0.208643 v 37.138398 c 0,0.115588 -0.0931,0.208642 -0.20865,0.208642 H 440.0422 c -0.11559,0 -0.20864,-0.09305 -0.20864,-0.208642 V 46.175638 c 0,-0.115588 0.0931,-0.208643 0.20864,-0.208643 z"
               id="path35789" /><path
               style="color:#000000;fill:#ff0000;-inkscape-stroke:none"
               d="m 440.04297,45.828125 c -0.19028,0 -0.34766,0.157329 -0.34766,0.347656 v 37.138672 c 0,0.190288 0.15737,0.347656 0.34766,0.347656 h 77.10547 c 0.19027,0 0.34765,-0.157329 0.34765,-0.347656 V 46.175781 c 0,-0.190296 -0.15737,-0.347656 -0.34765,-0.347656 z m 0,0.277344 h 77.10547 c 0.0409,0 0.0684,0.02942 0.0684,0.07031 v 37.138672 c 0,0.04085 -0.0275,0.06836 -0.0684,0.06836 h -77.10547 c -0.0409,0 -0.0703,-0.02746 -0.0703,-0.06836 v -37.13867 c 0,-0.04085 0.0295,-0.07031 0.0703,-0.07031 z"
               id="path35786" /></g><g
             aria-label="Segmentation"
             transform="matrix(0.26170921,0,0,0.26463228,369.04629,-80.021214)"
             id="text3012"
             style="font-size:28px;font-family:Bahnschrift;-inkscape-font-specification:Bahnschrift;text-align:center;white-space:pre;fill:#1a1a1a;stroke-width:1.03559"><path
               d="m 369.86523,469.03392 q -1.43554,0 -2.7207,-0.27343 -1.28516,-0.27344 -2.40625,-0.82032 -1.10742,-0.54687 -2.07812,-1.36718 v 0 l 1.73632,-2.13282 v 0 q 1.13477,0.98438 2.50196,1.47657 1.36718,0.49218 2.96679,0.49218 2.16016,0 3.34961,-0.79297 1.18946,-0.80664 1.18946,-2.26953 v -0.0137 q 0,-1.03906 -0.54688,-1.64062 -0.5332,-0.61524 -1.39453,-0.90235 -0.84766,-0.30078 -2.20117,-0.54687 -0.041,-0.0137 -0.0957,-0.0137 -0.041,0 -0.082,-0.0137 l -0.20507,-0.041 q -1.9961,-0.3418 -3.25391,-0.76563 -1.24414,-0.4375 -2.13281,-1.57226 -0.88867,-1.14844 -0.88867,-3.25391 v -0.0137 q 0,-1.8457 0.82031,-3.14453 0.83398,-1.3125 2.41992,-1.9961 1.58594,-0.68359 3.81445,-0.68359 1.06641,0 2.0918,0.23242 1.03906,0.23242 2.03711,0.69727 1.01172,0.45117 1.98242,1.14844 v 0 l -1.58594,2.21484 v 0 q -1.13476,-0.83398 -2.26953,-1.24414 -1.12109,-0.42383 -2.25586,-0.42383 -2.03711,0 -3.17187,0.82031 -1.1211,0.80664 -1.1211,2.29688 v 0.0137 q 0,1.02539 0.57422,1.61328 0.58789,0.58789 1.44922,0.875 0.875,0.27344 2.41992,0.57422 0.0547,0.0137 0.0957,0.0273 0.0547,0 0.10937,0.0137 0.0684,0.0137 0.15039,0.0273 0.082,0.0137 0.15039,0.0273 1.80469,0.36914 3.00782,0.875 1.21679,0.50586 2.02343,1.64063 0.82032,1.12109 0.82032,3.07617 v 0.0273 q 0,1.81836 -0.86133,3.11719 -0.86133,1.28516 -2.50196,1.96875 -1.62695,0.66992 -3.9375,0.66992 z"
               id="path35783" /><path
               d="m 386.66797,469.03392 q -1.96875,0 -3.36328,-0.73828 -1.39453,-0.73828 -2.13282,-2.16015 -0.7246,-1.43555 -0.7246,-3.45899 v -1.59961 q 0,-2.10547 0.69726,-3.5957 0.71094,-1.49024 2.05078,-2.26953 1.33985,-0.7793 3.22656,-0.7793 1.77735,0 3.03516,0.88867 1.25781,0.88867 1.91406,2.57032 0.66993,1.68164 0.66993,4.0332 v 0.92969 h -9.57032 v -2.24219 h 6.91797 v 0 q -0.12305,-1.73633 -0.90234,-2.69336 -0.76563,-0.9707 -2.06446,-0.9707 -1.58593,0 -2.46093,1.03906 -0.86133,1.03906 -0.86133,2.93945 v 1.80469 q 0,1.76367 0.92969,2.70703 0.92968,0.94336 2.63867,0.94336 0.84765,0 1.68164,-0.3418 0.83398,-0.34179 1.49023,-0.95703 v 0 l 1.83203,1.83203 v 0 q -1.05273,1.01172 -2.36523,1.57227 -1.3125,0.54687 -2.63867,0.54687 z"
               id="path35780" /><path
               d="m 400.62695,474.59838 q -1.59961,0 -2.87109,-0.60157 -1.25781,-0.58789 -1.95508,-1.66796 v 0 l 1.88672,-1.70899 v 0 q 0.54687,0.75195 1.29883,1.16211 0.76562,0.41016 1.59961,0.41016 1.59961,0 2.47461,-0.88868 0.875,-0.875 0.875,-2.48828 v -14.17773 h 2.78906 v 13.76758 q 0,1.95508 -0.72461,3.34961 -0.71094,1.39453 -2.07813,2.11914 -1.36718,0.72461 -3.29492,0.72461 z m -0.25976,-5.52344 q -1.5586,0 -2.66602,-0.66992 -1.09375,-0.6836 -1.66797,-1.98242 -0.57422,-1.29883 -0.57422,-3.11719 v -3.13086 q 0,-1.83203 0.56055,-3.13086 0.56055,-1.29883 1.62695,-1.96875 1.08008,-0.68359 2.58399,-0.68359 1.25781,0 2.29687,0.65625 1.05274,0.65625 1.69532,1.8457 l -0.28711,2.89844 q 0,-0.90235 -0.32813,-1.54493 -0.32812,-0.64257 -0.95703,-0.9707 -0.61523,-0.3418 -1.50391,-0.3418 -1.38086,0 -2.14648,0.86133 -0.75195,0.86133 -0.75195,2.41992 v 3.08985 q 0,1.54492 0.75195,2.39258 0.76562,0.83398 2.14648,0.83398 0.88868,0 1.50391,-0.3418 0.62891,-0.35547 0.95703,-1.01172 0.32813,-0.65625 0.32813,-1.57226 l 0.1914,2.99414 q -0.42383,1.05273 -1.39453,1.76367 -0.95703,0.71094 -2.36523,0.71094 z"
               id="path35777" /><path
               d="m 427.91602,460.22924 q 0,-1.50391 -0.7793,-2.32422 -0.7793,-0.82032 -2.1875,-0.82032 -1.29883,0 -2.00977,0.79297 -0.71093,0.79297 -0.71093,2.24219 l -0.56055,-2.73437 q 0.66992,-1.40821 1.76367,-2.17383 1.10742,-0.7793 2.43359,-0.7793 1.53125,0 2.61133,0.68359 1.09375,0.66993 1.6543,1.96875 0.57422,1.29883 0.57422,3.13086 v 8.61329 h -2.78906 z m -16.95313,-5.5918 h 2.78906 v 14.19141 h -2.78906 z m 8.47656,5.5918 q 0,-1.50391 -0.73828,-2.32422 -0.73828,-0.82032 -2.0918,-0.82032 -1.36718,0 -2.11914,0.72461 -0.73828,0.72461 -0.73828,2.03711 l -0.28711,-2.73437 q 0.65625,-1.28516 1.70899,-1.98242 1.0664,-0.69727 2.35156,-0.69727 1.49023,0 2.54297,0.68359 1.05273,0.66993 1.59961,1.96875 0.56055,1.29883 0.56055,3.13086 v 8.61329 h -2.78907 z"
               id="path35774" /><path
               d="m 440.75391,469.03392 q -1.96875,0 -3.36329,-0.73828 -1.39453,-0.73828 -2.13281,-2.16015 -0.72461,-1.43555 -0.72461,-3.45899 v -1.59961 q 0,-2.10547 0.69727,-3.5957 0.71094,-1.49024 2.05078,-2.26953 1.33984,-0.7793 3.22656,-0.7793 1.77735,0 3.03516,0.88867 1.25781,0.88867 1.91406,2.57032 0.66992,1.68164 0.66992,4.0332 v 0.92969 h -9.57031 v -2.24219 h 6.91797 v 0 q -0.12305,-1.73633 -0.90234,-2.69336 -0.76563,-0.9707 -2.06446,-0.9707 -1.58594,0 -2.46094,1.03906 -0.86132,1.03906 -0.86132,2.93945 v 1.80469 q 0,1.76367 0.92968,2.70703 0.92969,0.94336 2.63868,0.94336 0.84765,0 1.68164,-0.3418 0.83398,-0.34179 1.49023,-0.95703 v 0 l 1.83203,1.83203 v 0 q -1.05273,1.01172 -2.36523,1.57227 -1.3125,0.54687 -2.63867,0.54687 z"
               id="path35771" /><path
               d="m 449.95508,454.63744 h 2.78906 v 14.19141 h -2.78906 z m 8.61328,5.5918 q 0,-1.50391 -0.7793,-2.32422 -0.77929,-0.82032 -2.1875,-0.82032 -1.36719,0 -2.11914,0.72461 -0.73828,0.72461 -0.73828,2.03711 l -0.28711,-2.73437 q 0.65625,-1.28516 1.70899,-1.98242 1.0664,-0.69727 2.35156,-0.69727 2.31054,0 3.56836,1.51758 1.27148,1.50391 1.27148,4.26562 v 8.61329 h -2.78906 z"
               id="path35768" /><path
               d="m 469.28711,468.8972 q -1.72266,0 -2.5293,-0.94335 -0.79297,-0.95704 -0.79297,-2.81641 v -14.62891 h 2.78907 v 14.65625 q 0,0.51953 0.20507,0.80664 0.20508,0.27344 0.60157,0.27344 h 1.33984 v 2.65234 z m -4.78516,-14.25976 h 6.39844 v 2.51562 h -6.39844 z"
               id="path35765" /><path
               d="m 482.74023,459.83275 q 0,-1.39453 -0.75195,-2.16015 -0.73828,-0.7793 -2.10547,-0.7793 -0.84765,0 -1.66797,0.25976 -0.80664,0.25977 -1.43554,0.72461 l -2.03711,-1.39453 q 0.80664,-0.9707 2.11914,-1.5039 1.32617,-0.54688 2.93945,-0.54688 1.76367,0 3.02149,0.62891 1.25781,0.61523 1.91406,1.80468 0.65625,1.17579 0.65625,2.84375 v 9.11915 h -2.65235 z m -3.47265,9.20117 q -2.625,0 -3.92383,-1.08007 -1.29883,-1.09375 -1.29883,-3.3086 0,-2.10547 1.18945,-3.1582 1.18946,-1.05274 3.59571,-1.05274 h 4.0332 l 0.19141,2.24219 h -4.21094 q -1.09375,0 -1.64063,0.49219 -0.5332,0.47851 -0.5332,1.47656 0,1.08008 0.71094,1.59961 0.72461,0.51953 2.1875,0.51953 1.59961,0 2.37891,-0.34179 0.79296,-0.3418 0.79296,-1.06641 l 0.28711,1.99609 q -0.36914,0.57422 -0.91601,0.94336 -0.53321,0.36914 -1.24414,0.54688 -0.71094,0.1914 -1.59961,0.1914 z"
               id="path35762" /><path
               d="m 493.32227,468.8972 q -1.72266,0 -2.5293,-0.94335 Q 490,466.99681 490,465.13744 v -14.62891 h 2.78906 v 14.65625 q 0,0.51953 0.20508,0.80664 0.20508,0.27344 0.60156,0.27344 h 1.33985 v 2.65234 z m -4.78516,-14.25976 h 6.39844 v 2.51562 h -6.39844 z"
               id="path35759" /><path
               d="m 498.76367,448.94994 h 2.78906 v 2.78906 h -2.78906 z m 0,5.6875 h 2.78906 v 14.19141 h -2.78906 z"
               id="path35756" /><path
               d="m 511.23242,469.03392 q -1.8457,0 -3.1582,-0.72461 -1.3125,-0.72461 -2.00977,-2.10546 -0.68359,-1.39454 -0.68359,-3.34961 v -2.31055 q 0,-1.92774 0.68359,-3.29492 0.69727,-1.38086 2.00977,-2.0918 1.3125,-0.72461 3.1582,-0.72461 1.8457,0 3.1582,0.72461 1.3125,0.71094 1.9961,2.0918 0.69726,1.36718 0.69726,3.29492 v 2.35156 q 0,1.94141 -0.69726,3.32227 -0.6836,1.36718 -1.9961,2.09179 -1.3125,0.72461 -3.1582,0.72461 z m 0,-2.65234 q 1.46289,0 2.25586,-0.91602 0.80664,-0.91601 0.80664,-2.57031 v -2.35156 q 0,-1.6543 -0.80664,-2.55664 -0.79297,-0.90235 -2.25586,-0.90235 -1.46289,0 -2.26953,0.90235 -0.79297,0.90234 -0.79297,2.55664 v 2.35156 q 0,1.6543 0.79297,2.57031 0.80664,0.91602 2.26953,0.91602 z"
               id="path35753" /><path
               d="m 521.04883,454.63744 h 2.78906 v 14.19141 h -2.78906 z m 8.61328,5.5918 q 0,-1.50391 -0.7793,-2.32422 -0.77929,-0.82032 -2.1875,-0.82032 -1.36719,0 -2.11914,0.72461 -0.73828,0.72461 -0.73828,2.03711 l -0.28711,-2.73437 q 0.65625,-1.28516 1.70899,-1.98242 1.0664,-0.69727 2.35156,-0.69727 2.31054,0 3.56836,1.51758 1.27148,1.50391 1.27148,4.26562 v 8.61329 h -2.78906 z"
               id="path35750" /></g></g><g
           id="g14005"
           transform="translate(-5.5127649)"><g
             id="path5316"
             transform="translate(13.092788,-22.593131)"><path
               style="color:#000000;-inkscape-font-specification:'Arial, Normal';fill:#000000;stroke-width:0.0500229;-inkscape-stroke:none"
               d="m 471.01501,90.552304 0.66196,-0.05788 q 0.047,0.397907 0.21704,0.65474 0.17364,0.253214 0.53538,0.412377 0.36174,0.155546 0.81389,0.155546 0.40153,0 0.709,-0.119372 0.30747,-0.119372 0.4558,-0.325562 0.15192,-0.209807 0.15192,-0.455787 0,-0.249597 -0.1447,-0.434081 -0.1447,-0.188103 -0.47749,-0.314711 -0.21342,-0.0832 -0.94411,-0.256831 -0.7307,-0.17725 -1.02373,-0.332796 -0.37981,-0.198953 -0.5679,-0.491961 -0.1845,-0.296621 -0.1845,-0.661974 0,-0.401526 0.22789,-0.748792 0.22788,-0.350882 0.66559,-0.531749 0.4377,-0.180869 0.97308,-0.180869 0.58962,0 1.03817,0.19172 0.45217,0.188103 0.69453,0.557072 0.24236,0.368969 0.26046,0.835607 l -0.67284,0.05064 q -0.0543,-0.502812 -0.36896,-0.759643 -0.3111,-0.256833 -0.92244,-0.256833 -0.63664,0 -0.92964,0.23513 -0.2894,0.23151 -0.2894,0.560689 0,0.285768 0.20619,0.470254 0.20256,0.184486 1.05627,0.379823 0.8573,0.19172 1.17565,0.336412 0.46302,0.213424 0.68368,0.542603 0.22064,0.325561 0.22064,0.752408 0,0.423231 -0.24236,0.799436 -0.24236,0.372587 -0.69813,0.582393 -0.45218,0.20619 -1.0201,0.20619 -0.71986,0 -1.2082,-0.209807 -0.48474,-0.209806 -0.76327,-0.62942 -0.27493,-0.42323 -0.28937,-0.954979 z"
               id="path35747" /><path
               style="color:#000000;-inkscape-font-specification:'Arial, Normal';fill:#000000;-inkscape-stroke:none"
               d="m 473.08398,86.837891 c -0.35973,0 -0.68729,0.05969 -0.98242,0.18164 -0.29566,0.122173 -0.5229,0.30456 -0.67773,0.542969 -0.15363,0.234748 -0.23047,0.489942 -0.23047,0.761719 0,0.247778 0.0621,0.474123 0.1875,0.675781 0.12814,0.199613 0.32195,0.36581 0.57812,0.5 0.19949,0.105889 0.54128,0.217556 1.0293,0.335937 0.48679,0.115673 0.80264,0.201763 0.94141,0.25586 0.21914,0.08337 0.37237,0.186434 0.46484,0.30664 h 0.002 c 0.0931,0.11868 0.13868,0.256405 0.13868,0.417969 0,0.158838 -0.0479,0.305296 -0.14649,0.441406 -0.0954,0.132667 -0.2436,0.238093 -0.44531,0.316407 -0.20156,0.07825 -0.43401,0.117187 -0.69922,0.117187 -0.29856,0 -0.567,-0.05014 -0.80469,-0.152344 -0.23803,-0.104733 -0.41283,-0.240152 -0.52539,-0.404296 -0.11066,-0.167149 -0.18189,-0.380174 -0.21289,-0.642579 l -0.002,-0.02539 -0.70899,0.0625 v 0.02344 c 0.01,0.358625 0.10719,0.682752 0.29297,0.96875 0.18832,0.283713 0.44826,0.497081 0.77539,0.638672 0.32966,0.141631 0.73446,0.210938 1.2168,0.210938 0.38164,0 0.7262,-0.06988 1.03125,-0.208985 0.30743,-0.141518 0.54467,-0.337244 0.70898,-0.589843 0.16389,-0.254393 0.2461,-0.527526 0.2461,-0.814454 0,-0.288873 -0.0747,-0.544382 -0.22461,-0.765625 -0.15022,-0.224096 -0.38357,-0.407084 -0.69531,-0.550781 -0.21615,-0.09824 -0.60749,-0.209929 -1.17969,-0.33789 -0.56789,-0.129939 -0.91957,-0.260829 -1.04492,-0.375 -0.13268,-0.118712 -0.19727,-0.266676 -0.19727,-0.451172 0,-0.212123 0.0909,-0.390288 0.2793,-0.541016 0.18844,-0.151219 0.49271,-0.230469 0.91406,-0.230469 0.40406,0 0.70505,0.08585 0.90625,0.251953 0.20413,0.166611 0.32368,0.411656 0.35938,0.742188 l 0.004,0.02344 0.72071,-0.05273 -0.002,-0.02539 c -0.0122,-0.315156 -0.0996,-0.597871 -0.26367,-0.847656 -0.16442,-0.250314 -0.39974,-0.439385 -0.70508,-0.566406 -0.30267,-0.12937 -0.65304,-0.193359 -1.04883,-0.193359 z m 0,0.04883 c 0.39037,0 0.73391,0.06515 1.0293,0.191406 0.29756,0.123783 0.52487,0.305231 0.68359,0.546875 0.15452,0.235228 0.23239,0.502467 0.24805,0.798828 l -0.62695,0.04687 c -0.0408,-0.324892 -0.15831,-0.581461 -0.36719,-0.751953 -0.2136,-0.176343 -0.52644,-0.261719 -0.9375,-0.261719 -0.4275,0 -0.74308,0.07795 -0.94531,0.240235 -0.19745,0.157952 -0.29883,0.353296 -0.29883,0.580078 0,0.196527 0.0726,0.361011 0.21484,0.488281 0.14473,0.13181 0.49602,0.256208 1.06641,0.386719 0.57087,0.127664 0.96355,0.2393 1.17188,0.333984 0.30561,0.140869 0.52788,0.318395 0.67187,0.533203 0.14425,0.212838 0.2168,0.458027 0.2168,0.738281 0,0.27738 -0.079,0.539897 -0.23828,0.78711 -0.15884,0.244183 -0.38724,0.434042 -0.6875,0.572265 -0.29786,0.13582 -0.63418,0.205079 -1.00977,0.205079 -0.47748,0 -0.8758,-0.07087 -1.19727,-0.208985 -0.31918,-0.13815 -0.5689,-0.343368 -0.75195,-0.61914 -0.17592,-0.270811 -0.26555,-0.578975 -0.2793,-0.917969 l 0.61329,-0.05469 c 0.0334,0.25554 0.10093,0.471519 0.21289,0.640625 v 0.002 c 0.11896,0.173475 0.30259,0.312439 0.54687,0.419922 0.24464,0.105191 0.51992,0.158203 0.82422,0.158203 0.27017,1e-6 0.50839,-0.04018 0.7168,-0.121093 0.20824,-0.08085 0.36446,-0.191732 0.46679,-0.333985 0.10401,-0.143632 0.15821,-0.301567 0.15821,-0.470703 0,-0.171231 -0.0505,-0.321919 -0.15039,-0.449219 -0.10047,-0.130597 -0.2637,-0.236824 -0.48828,-0.322265 -0.1458,-0.05684 -0.4598,-0.141978 -0.94727,-0.257813 -0.48625,-0.117952 -0.82635,-0.230526 -1.01758,-0.332031 -0.25024,-0.131081 -0.43594,-0.291358 -0.55859,-0.482422 -0.12057,-0.193836 -0.18164,-0.409079 -0.18164,-0.648437 0,-0.262952 0.0751,-0.506562 0.22461,-0.734375 v -0.002 c 0.149,-0.229433 0.36635,-0.402502 0.65429,-0.521485 0.28848,-0.119204 0.60879,-0.179687 0.96289,-0.179687 z"
               id="path35744" /></g><g
             id="path5318"
             transform="translate(13.092788,-22.593131)"><path
               style="color:#000000;-inkscape-font-specification:'Arial, Normal';fill:#000000;stroke-width:0.0500229;-inkscape-stroke:none"
               d="m 475.61265,92.256075 2.03657,-5.303035 h 0.75602 l 2.17041,5.303035 h -0.79944 l -0.61854,-1.606102 h -2.21745 l -0.5824,1.606102 z m 1.53014,-2.177645 h 1.79781 l -0.55345,-1.468644 q -0.25321,-0.66921 -0.37619,-1.099674 -0.10128,0.510045 -0.28577,1.012857 z"
               id="path35741" /><path
               style="color:#000000;-inkscape-font-specification:'Arial, Normal';fill:#000000;-inkscape-stroke:none"
               d="m 477.63281,86.927734 -2.05664,5.353516 h 0.0371 0.76172 l 0.58203,-1.605469 h 2.18359 l 0.61915,1.605469 h 0.85351 l -2.19141,-5.353516 z m 0.0332,0.05078 h 0.72265 l 2.15039,5.251953 h -0.74609 L 479.17578,90.625 h -2.25391 l -0.58203,1.605469 h -0.68945 z m 0.36914,0.52539 -0.0488,0.002 c -0.0673,0.338724 -0.1626,0.673783 -0.28516,1.007813 l -0.59375,1.589844 h 0.0352 1.83398 l -0.5664,-1.501954 c -0.16866,-0.445732 -0.29332,-0.811748 -0.375,-1.097656 z m -0.0215,0.0918 c 0.0822,0.278005 0.19266,0.608637 0.34961,1.023438 l 0.54102,1.433593 h -1.72461 l 0.56836,-1.521484 c 0.11373,-0.309963 0.19914,-0.621379 0.26562,-0.935547 z"
               id="path35738" /></g><g
             id="path5320"
             transform="translate(13.092788,-22.593131)"><path
               style="color:#000000;-inkscape-font-specification:'Arial, Normal';fill:#000000;stroke-width:0.0500229;-inkscape-stroke:none"
               d="M 481.11463,92.256075 V 86.95304 h 1.05627 l 1.25524,3.75481 q 0.17362,0.524515 0.2532,0.784963 0.0904,-0.289388 0.28215,-0.850077 l 1.26969,-3.689696 h 0.94414 v 5.303035 h -0.67646 v -4.438488 l -1.54099,4.438488 h -0.63302 l -1.53376,-4.514453 v 4.514453 z"
               id="path35735" /><path
               style="color:#000000;-inkscape-font-specification:'Arial, Normal';fill:#000000;-inkscape-stroke:none"
               d="m 481.08984,86.927734 v 5.353516 h 0.0254 0.70118 v -4.386719 l 1.49023,4.386719 h 0.66992 l 1.49805,-4.314453 v 4.314453 h 0.72656 v -5.353516 h -0.98828 l -1.27539,3.707032 c -0.11704,0.342226 -0.19731,0.588355 -0.25781,0.779296 -0.0535,-0.172661 -0.12533,-0.397206 -0.23047,-0.714843 l -1.25977,-3.771485 z m 0.0488,0.05078 h 1.01367 l 1.25,3.736328 c 0.11572,0.349586 0.20097,0.611898 0.25391,0.785156 l 0.0234,0.07813 0.0234,-0.07813 c 0.0601,-0.192509 0.15346,-0.475925 0.28125,-0.849609 L 485.25,86.978516 h 0.90039 v 5.251953 h -0.62695 v -4.404297 -0.0078 l -0.0488,-0.0098 -1.53516,4.421875 h -0.59765 l -1.52539,-4.488282 -0.002,-0.0078 -0.0488,0.0078 v 4.488282 h -0.62695 z"
               id="path35732" /></g></g></g><g
         id="g10360"
         transform="translate(-6.7186912,-12.256721)"><g
           id="rect10971"><path
             style="color:#000000;fill:#decd87;stroke-width:0.372884;-inkscape-stroke:none"
             d="m 536.62668,45.919741 h 37.90023 v 37.555683 h -37.90023 z"
             id="path35729" /><path
             style="color:#000000;fill:#ff0000;-inkscape-stroke:none"
             d="m 536.43945,45.732422 v 0.1875 37.742187 h 38.27344 V 45.732422 Z m 0.37305,0.373047 h 37.52734 V 83.289062 H 536.8125 Z"
             id="path35726" /></g><g
           aria-label="Size
Area"
           transform="matrix(0.26458333,0,0,0.26458333,475.17602,-61.781898)"
           id="text3052"
           style="font-size:28px;font-family:Bahnschrift;-inkscape-font-specification:Bahnschrift;white-space:pre;fill:#1a1a1a;stroke-width:1.03559" /><g
           id="path5355"
           transform="translate(-47.547564,35.832947)"><g
             id="g30365"><g
               id="g30390" /></g></g></g><g
         aria-label="Scikit-image"
         transform="matrix(0.26170921,0,0,0.26463228,431.67437,-45.132083)"
         id="text30943"
         style="font-size:28px;line-height:38.2866px;font-family:Bahnschrift;-inkscape-font-specification:Bahnschrift;text-align:center;white-space:pre;shape-inside:url(#rect30945);shape-padding:62.5068;display:inline;fill:#1a1a1a;stroke-width:1.03559"><path
           d="m 377.09082,469.03392 q -1.43555,0 -2.7207,-0.27343 -1.28516,-0.27344 -2.40625,-0.82032 -1.10742,-0.54687 -2.07813,-1.36718 v 0 l 1.73633,-2.13282 v 0 q 1.13477,0.98438 2.50195,1.47657 1.36719,0.49218 2.9668,0.49218 2.16016,0 3.34961,-0.79297 1.18945,-0.80664 1.18945,-2.26953 v -0.0137 q 0,-1.03906 -0.54687,-1.64062 -0.53321,-0.61524 -1.39453,-0.90235 -0.84766,-0.30078 -2.20118,-0.54687 -0.041,-0.0137 -0.0957,-0.0137 -0.041,0 -0.082,-0.0137 l -0.20508,-0.041 q -1.99609,-0.3418 -3.2539,-0.76563 -1.24414,-0.4375 -2.13282,-1.57226 -0.88867,-1.14844 -0.88867,-3.25391 v -0.0137 q 0,-1.8457 0.82031,-3.14453 0.83399,-1.3125 2.41993,-1.9961 1.58593,-0.68359 3.81445,-0.68359 1.06641,0 2.0918,0.23242 1.03906,0.23242 2.03711,0.69727 1.01171,0.45117 1.98242,1.14844 v 0 l -1.58594,2.21484 v 0 q -1.13477,-0.83398 -2.26953,-1.24414 -1.1211,-0.42383 -2.25586,-0.42383 -2.03711,0 -3.17188,0.82031 -1.12109,0.80664 -1.12109,2.29688 v 0.0137 q 0,1.02539 0.57422,1.61328 0.58789,0.58789 1.44922,0.875 0.875,0.27344 2.41992,0.57422 0.0547,0.0137 0.0957,0.0273 0.0547,0 0.10938,0.0137 0.0684,0.0137 0.15039,0.0273 0.082,0.0137 0.15039,0.0273 1.80469,0.36914 3.00781,0.875 1.2168,0.50586 2.02344,1.64063 0.82031,1.12109 0.82031,3.07617 v 0.0273 q 0,1.81836 -0.86133,3.11719 -0.86132,1.28516 -2.50195,1.96875 -1.62695,0.66992 -3.9375,0.66992 z"
           id="path35723" /><path
           d="m 393.81152,469.03392 q -1.9414,0 -3.32226,-0.72461 -1.36719,-0.72461 -2.0918,-2.10546 -0.72461,-1.38086 -0.72461,-3.33594 v -2.33789 q 0,-1.92774 0.72461,-3.29492 0.72461,-1.36719 2.0918,-2.07813 1.38086,-0.72461 3.32226,-0.72461 1.10743,0 2.07813,0.27344 0.98437,0.25976 1.76367,0.76562 0.7793,0.50586 1.29883,1.23047 v 0 l -2.00977,1.80469 v 0 q -0.60156,-0.68359 -1.4082,-1.05273 -0.80664,-0.36915 -1.68164,-0.36915 -1.61328,0 -2.50195,0.90235 -0.88868,0.90234 -0.88868,2.54297 v 2.33789 q 0,1.68164 0.875,2.59765 0.88868,0.91602 2.51563,0.91602 0.88867,0 1.69531,-0.39648 0.80664,-0.39649 1.39453,-1.1211 v 0 l 2.00977,1.94141 v 0 q -0.5332,0.71094 -1.3125,1.21679 -0.7793,0.49219 -1.76367,0.75196 -0.97071,0.25976 -2.06446,0.25976 z"
           id="path35720" /><path
           d="m 402.02832,448.94994 h 2.78906 v 2.78906 h -2.78906 z m 0,5.6875 h 2.78906 v 14.19141 h -2.78906 z"
           id="path35717" /><path
           d="m 410.25879,463.44213 7.30078,-8.80469 h 3.28125 l -10.75977,12.11328 z m -1.20313,-14.49219 h 2.78907 v 19.87891 h -2.78907 z m 4.49805,11.68945 1.79102,-1.85937 6.19336,10.04883 h -3.03516 z"
           id="path35714" /><path
           d="m 423.8623,448.94994 h 2.78907 v 2.78906 h -2.78907 z m 0,5.6875 h 2.78907 v 14.19141 h -2.78907 z"
           id="path35711" /><path
           d="m 434.58105,468.8972 q -1.72265,0 -2.52929,-0.94335 -0.79297,-0.95704 -0.79297,-2.81641 v -14.62891 h 2.78906 v 14.65625 q 0,0.51953 0.20508,0.80664 0.20508,0.27344 0.60156,0.27344 h 1.33985 v 2.65234 z m -4.78515,-14.25976 h 6.39844 v 2.51562 h -6.39844 z"
           id="path35708" /><path
           d="m 449.20996,460.37963 v 2.65234 h -9.1875 v -2.65234 z"
           id="path35705" /><path
           d="m 453.44824,448.94994 h 2.78906 v 2.78906 h -2.78906 z m 0,5.6875 h 2.78906 v 14.19141 h -2.78906 z"
           id="path35702" /><path
           d="m 477.42871,460.22924 q 0,-1.50391 -0.7793,-2.32422 -0.77929,-0.82032 -2.1875,-0.82032 -1.29882,0 -2.00976,0.79297 -0.71094,0.79297 -0.71094,2.24219 l -0.56055,-2.73437 q 0.66993,-1.40821 1.76368,-2.17383 1.10742,-0.7793 2.43359,-0.7793 1.53125,0 2.61133,0.68359 1.09375,0.66993 1.65429,1.96875 0.57422,1.29883 0.57422,3.13086 v 8.61329 h -2.78906 z m -16.95312,-5.5918 h 2.78906 v 14.19141 h -2.78906 z m 8.47656,5.5918 q 0,-1.50391 -0.73828,-2.32422 -0.73828,-0.82032 -2.0918,-0.82032 -1.36719,0 -2.11914,0.72461 -0.73828,0.72461 -0.73828,2.03711 l -0.28711,-2.73437 q 0.65625,-1.28516 1.70898,-1.98242 1.06641,-0.69727 2.35157,-0.69727 1.49023,0 2.54296,0.68359 1.05274,0.66993 1.59961,1.96875 0.56055,1.29883 0.56055,3.13086 v 8.61329 h -2.78906 z"
           id="path35699" /><path
           d="m 492.46777,459.83275 q 0,-1.39453 -0.75195,-2.16015 -0.73828,-0.7793 -2.10547,-0.7793 -0.84765,0 -1.66797,0.25976 -0.80664,0.25977 -1.43554,0.72461 l -2.03711,-1.39453 q 0.80664,-0.9707 2.11914,-1.5039 1.32617,-0.54688 2.93945,-0.54688 1.76367,0 3.02148,0.62891 1.25782,0.61523 1.91407,1.80468 0.65625,1.17579 0.65625,2.84375 v 9.11915 h -2.65235 z m -3.47265,9.20117 q -2.625,0 -3.92383,-1.08007 -1.29883,-1.09375 -1.29883,-3.3086 0,-2.10547 1.18945,-3.1582 1.18946,-1.05274 3.59571,-1.05274 h 4.0332 l 0.19141,2.24219 h -4.21094 q -1.09375,0 -1.64063,0.49219 -0.5332,0.47851 -0.5332,1.47656 0,1.08008 0.71094,1.59961 0.72461,0.51953 2.1875,0.51953 1.59961,0 2.3789,-0.34179 0.79297,-0.3418 0.79297,-1.06641 l 0.28711,1.99609 q -0.36914,0.57422 -0.91601,0.94336 -0.53321,0.36914 -1.24414,0.54688 -0.71094,0.1914 -1.59961,0.1914 z"
           id="path35696" /><path
           d="m 504.11621,474.59838 q -1.59961,0 -2.87109,-0.60157 -1.25782,-0.58789 -1.95508,-1.66796 v 0 l 1.88672,-1.70899 v 0 q 0.54687,0.75195 1.29883,1.16211 0.76562,0.41016 1.59961,0.41016 1.5996,0 2.4746,-0.88868 0.875,-0.875 0.875,-2.48828 v -14.17773 h 2.78907 v 13.76758 q 0,1.95508 -0.72461,3.34961 -0.71094,1.39453 -2.07813,2.11914 -1.36718,0.72461 -3.29492,0.72461 z m -0.25976,-5.52344 q -1.5586,0 -2.66602,-0.66992 -1.09375,-0.6836 -1.66797,-1.98242 -0.57422,-1.29883 -0.57422,-3.11719 v -3.13086 q 0,-1.83203 0.56055,-3.13086 0.56055,-1.29883 1.62695,-1.96875 1.08008,-0.68359 2.58399,-0.68359 1.25781,0 2.29687,0.65625 1.05274,0.65625 1.69531,1.8457 l -0.28711,2.89844 q 0,-0.90235 -0.32812,-1.54493 -0.32813,-0.64257 -0.95703,-0.9707 -0.61524,-0.3418 -1.50391,-0.3418 -1.38086,0 -2.14648,0.86133 -0.75196,0.86133 -0.75196,2.41992 v 3.08985 q 0,1.54492 0.75196,2.39258 0.76562,0.83398 2.14648,0.83398 0.88867,0 1.50391,-0.3418 0.6289,-0.35547 0.95703,-1.01172 0.32812,-0.65625 0.32812,-1.57226 l 0.19141,2.99414 q -0.42383,1.05273 -1.39453,1.76367 -0.95703,0.71094 -2.36523,0.71094 z"
           id="path35693" /><path
           d="m 520.2627,469.03392 q -1.96875,0 -3.36329,-0.73828 -1.39453,-0.73828 -2.13281,-2.16015 -0.72461,-1.43555 -0.72461,-3.45899 v -1.59961 q 0,-2.10547 0.69727,-3.5957 0.71094,-1.49024 2.05078,-2.26953 1.33984,-0.7793 3.22656,-0.7793 1.77735,0 3.03516,0.88867 1.25781,0.88867 1.91406,2.57032 0.66992,1.68164 0.66992,4.0332 v 0.92969 h -9.57031 v -2.24219 h 6.91797 v 0 q -0.12305,-1.73633 -0.90235,-2.69336 -0.76562,-0.9707 -2.06445,-0.9707 -1.58594,0 -2.46094,1.03906 -0.86132,1.03906 -0.86132,2.93945 v 1.80469 q 0,1.76367 0.92968,2.70703 0.92969,0.94336 2.63868,0.94336 0.84765,0 1.68164,-0.3418 0.83398,-0.34179 1.49023,-0.95703 v 0 l 1.83203,1.83203 v 0 q -1.05273,1.01172 -2.36523,1.57227 -1.3125,0.54687 -2.63867,0.54687 z"
           id="path35690" /></g><g
         aria-label="Analysis"
         transform="matrix(0.26170921,0,0,0.26463228,431.72804,-69.779703)"
         id="text31076"
         style="font-size:28px;line-height:38.2866px;font-family:Bahnschrift;-inkscape-font-specification:Bahnschrift;text-align:center;white-space:pre;shape-inside:url(#rect31078);shape-padding:62.5068;display:inline;fill:#1a1a1a;stroke-width:1.03559"><path
           d="m 402.65723,448.94994 h 2.3789 l 7.32813,19.87891 h -3.00781 l -5.50977,-16.03711 -5.50977,16.03711 h -3.00781 z m -3.95118,12.86523 h 10.45899 v 2.65235 h -10.45899 z"
           id="path35687" /><path
           d="m 415.09863,454.63744 h 2.78907 v 14.19141 h -2.78907 z m 8.61328,5.5918 q 0,-1.50391 -0.77929,-2.32422 -0.7793,-0.82032 -2.1875,-0.82032 -1.36719,0 -2.11914,0.72461 -0.73828,0.72461 -0.73828,2.03711 l -0.28711,-2.73437 q 0.65625,-1.28516 1.70898,-1.98242 1.06641,-0.69727 2.35156,-0.69727 2.31055,0 3.56836,1.51758 1.27149,1.50391 1.27149,4.26562 v 8.61329 h -2.78907 z"
           id="path35684" /><path
           d="m 438.75098,459.83275 q 0,-1.39453 -0.75196,-2.16015 -0.73828,-0.7793 -2.10547,-0.7793 -0.84765,0 -1.66796,0.25976 -0.80664,0.25977 -1.43555,0.72461 l -2.03711,-1.39453 q 0.80664,-0.9707 2.11914,-1.5039 1.32617,-0.54688 2.93945,-0.54688 1.76368,0 3.02149,0.62891 1.25781,0.61523 1.91406,1.80468 0.65625,1.17579 0.65625,2.84375 v 9.11915 h -2.65234 z m -3.47266,9.20117 q -2.625,0 -3.92383,-1.08007 -1.29883,-1.09375 -1.29883,-3.3086 0,-2.10547 1.18946,-3.1582 1.18945,-1.05274 3.5957,-1.05274 h 4.0332 l 0.19141,2.24219 h -4.21094 q -1.09375,0 -1.64062,0.49219 -0.53321,0.47851 -0.53321,1.47656 0,1.08008 0.71094,1.59961 0.72461,0.51953 2.1875,0.51953 1.59961,0 2.37891,-0.34179 0.79297,-0.3418 0.79297,-1.06641 l 0.28711,1.99609 q -0.36914,0.57422 -0.91602,0.94336 -0.5332,0.36914 -1.24414,0.54688 -0.71094,0.1914 -1.59961,0.1914 z"
           id="path35681" /><path
           d="m 448.43066,465.16478 q 0,0.51953 0.21875,0.80664 0.23243,0.27344 0.64258,0.27344 h 1.3125 v 2.65234 h -1.64062 q -1.58594,0 -2.46094,-0.98437 -0.86133,-0.98438 -0.86133,-2.77539 v -16.1875 h 2.78906 z"
           id="path35678" /><path
           d="m 464.80957,454.63744 -6.04297,17.51367 q -0.32812,0.9707 -0.86133,1.53125 -0.5332,0.57422 -1.3125,0.82031 -0.77929,0.2461 -1.91406,0.2461 h -0.56055 v -2.67969 h 0.56055 q 0.7793,0 1.23047,-0.31445 0.46484,-0.31446 0.80664,-1.08008 l 5.25,-16.03711 z m -12.56445,0 h 2.84375 l 4.36133,12.33203 -1.54493,3.02148 z"
           id="path35675" /><path
           d="m 472.28809,469.03392 q -1.25782,0 -2.36524,-0.24609 -1.09375,-0.24609 -2.05078,-0.73828 -0.95703,-0.49219 -1.76367,-1.23047 v 0 l 1.6543,-2.03711 v 0 q 1.14843,0.875 2.2832,1.3125 1.13476,0.4375 2.24219,0.4375 1.65429,0 2.47461,-0.50586 0.83398,-0.51953 0.83398,-1.54492 0,-0.68359 -0.45117,-1.02539 -0.45117,-0.3418 -1.1211,-0.45117 -0.66992,-0.12305 -1.88671,-0.21875 -0.10938,0 -0.23243,0 -0.12304,-0.0137 -0.23242,-0.0274 -0.0547,0 -0.10937,0 -0.0547,-0.0137 -0.10938,-0.0137 -1.38086,-0.10937 -2.33789,-0.39648 -0.95703,-0.30078 -1.59961,-1.10743 -0.6289,-0.80664 -0.6289,-2.31054 0,-1.50391 0.61523,-2.50196 0.61523,-0.99804 1.83203,-1.49023 1.2168,-0.50586 3.04883,-0.50586 1.10742,0 2.10547,0.20508 1.01172,0.20508 1.92773,0.61523 0.91602,0.39649 1.76367,1.01172 v 0 l -1.68164,2.03711 v 0 q -1.0664,-0.68359 -2.10547,-1.02539 -1.02539,-0.3418 -2.00976,-0.3418 -1.42188,0 -2.13281,0.49219 -0.71094,0.47852 -0.71094,1.44922 0,0.57422 0.39648,0.86133 0.41016,0.28711 1.02539,0.38281 0.61524,0.0957 1.75,0.16406 0.082,0.0137 0.16407,0.0137 0.0957,0 0.1914,0.0137 0.041,0 0.082,0 0.041,0 0.082,0.0137 1.49023,0.0957 2.52929,0.39648 1.05274,0.30078 1.76367,1.18946 0.71094,0.88867 0.71094,2.57031 0,1.53125 -0.65625,2.54297 -0.65625,0.99804 -1.98242,1.5039 -1.3125,0.50586 -3.30859,0.50586 z"
           id="path35672" /><path
           d="m 481.79004,448.94994 h 2.78906 v 2.78906 h -2.78906 z m 0,5.6875 h 2.78906 v 14.19141 h -2.78906 z"
           id="path35669" /><path
           d="m 493.83496,469.03392 q -1.25781,0 -2.36523,-0.24609 -1.09375,-0.24609 -2.05078,-0.73828 -0.95704,-0.49219 -1.76368,-1.23047 v 0 l 1.6543,-2.03711 v 0 q 1.14844,0.875 2.2832,1.3125 1.13477,0.4375 2.24219,0.4375 1.6543,0 2.47461,-0.50586 0.83398,-0.51953 0.83398,-1.54492 0,-0.68359 -0.45117,-1.02539 -0.45117,-0.3418 -1.12109,-0.45117 -0.66992,-0.12305 -1.88672,-0.21875 -0.10937,0 -0.23242,0 -0.12305,-0.0137 -0.23242,-0.0274 -0.0547,0 -0.10938,0 -0.0547,-0.0137 -0.10937,-0.0137 -1.38086,-0.10937 -2.33789,-0.39648 -0.95704,-0.30078 -1.59961,-1.10743 -0.62891,-0.80664 -0.62891,-2.31054 0,-1.50391 0.61523,-2.50196 0.61524,-0.99804 1.83204,-1.49023 1.21679,-0.50586 3.04882,-0.50586 1.10743,0 2.10547,0.20508 1.01172,0.20508 1.92774,0.61523 0.91601,0.39649 1.76367,1.01172 v 0 l -1.68164,2.03711 v 0 q -1.06641,-0.68359 -2.10547,-1.02539 -1.02539,-0.3418 -2.00977,-0.3418 -1.42187,0 -2.13281,0.49219 -0.71094,0.47852 -0.71094,1.44922 0,0.57422 0.39649,0.86133 0.41015,0.28711 1.02539,0.38281 0.61523,0.0957 1.75,0.16406 0.082,0.0137 0.16406,0.0137 0.0957,0 0.19141,0.0137 0.041,0 0.082,0 0.041,0 0.082,0.0137 1.49023,0.0957 2.5293,0.39648 1.05273,0.30078 1.76367,1.18946 0.71094,0.88867 0.71094,2.57031 0,1.53125 -0.65625,2.54297 -0.65625,0.99804 -1.98243,1.5039 -1.3125,0.50586 -3.30859,0.50586 z"
           id="path35666" /></g><g
         aria-label="S / TEM
Image"
         transform="matrix(0.26170921,0,0,0.26463228,228.63589,-74.859314)"
         id="text31096"
         style="font-size:28px;line-height:38.2866px;font-family:Bahnschrift;-inkscape-font-specification:Bahnschrift;text-align:center;text-anchor:middle;white-space:pre;shape-inside:url(#rect31098);shape-padding:62.5068;display:inline;fill:#1a1a1a;stroke-width:1.03559"><path
           d="m 408.67285,469.03392 q -1.43555,0 -2.7207,-0.27343 -1.28516,-0.27344 -2.40625,-0.82032 -1.10742,-0.54687 -2.07813,-1.36718 v 0 l 1.73633,-2.13282 v 0 q 1.13477,0.98438 2.50195,1.47657 1.36719,0.49218 2.9668,0.49218 2.16016,0 3.34961,-0.79297 1.18945,-0.80664 1.18945,-2.26953 v -0.0137 q 0,-1.03906 -0.54687,-1.64062 -0.5332,-0.61524 -1.39453,-0.90235 -0.84766,-0.30078 -2.20117,-0.54687 -0.041,-0.0137 -0.0957,-0.0137 -0.041,0 -0.082,-0.0137 l -0.20508,-0.041 q -1.99609,-0.3418 -3.2539,-0.76563 -1.24414,-0.4375 -2.13282,-1.57226 -0.88867,-1.14844 -0.88867,-3.25391 v -0.0137 q 0,-1.8457 0.82032,-3.14453 0.83398,-1.3125 2.41992,-1.9961 1.58593,-0.68359 3.81445,-0.68359 1.06641,0 2.0918,0.23242 1.03906,0.23242 2.03711,0.69727 1.01172,0.45117 1.98242,1.14844 v 0 l -1.58594,2.21484 v 0 q -1.13476,-0.83398 -2.26953,-1.24414 -1.12109,-0.42383 -2.25586,-0.42383 -2.03711,0 -3.17187,0.82031 -1.1211,0.80664 -1.1211,2.29688 v 0.0137 q 0,1.02539 0.57422,1.61328 0.58789,0.58789 1.44922,0.875 0.875,0.27344 2.41992,0.57422 0.0547,0.0137 0.0957,0.0273 0.0547,0 0.10938,0.0137 0.0684,0.0137 0.15039,0.0273 0.082,0.0137 0.15039,0.0273 1.80469,0.36914 3.00781,0.875 1.2168,0.50586 2.02344,1.64063 0.82031,1.12109 0.82031,3.07617 v 0.0273 q 0,1.81836 -0.86133,3.11719 -0.86132,1.28516 -2.50195,1.96875 -1.62695,0.66992 -3.9375,0.66992 z"
           id="path35663" /><path
           d="m 427.52637,472.60228 h -2.66602 l 9.22852,-26.0039 h 2.66601 z"
           id="path35660" /><path
           d="m 448.45801,450.57689 h 2.78906 v 18.25196 h -2.78906 z m -5.61914,-1.62695 h 14.02734 v 2.65234 h -14.02734 z"
           id="path35657" /><path
           d="m 459.60059,448.94994 h 2.78906 v 19.87891 h -2.78906 z m 1.35351,17.22656 h 11.41602 v 2.65235 H 460.9541 Z m 0,-8.54492 h 9.91211 v 2.65234 h -9.91211 z m 0,-8.68164 h 11.41602 v 2.65234 H 460.9541 Z"
           id="path35654" /><path
           d="m 490.62207,448.94994 h 2.61133 v 19.87891 h -2.7207 v -14.88868 l 0.13671,0.875 -4.89453,11.25196 h -1.9414 l -4.89453,-10.97852 0.13671,-1.14844 v 14.88868 h -2.7207 v -19.87891 h 2.61133 l 5.83789,13.125 z"
           id="path35651" /><path
           d="m 414.86621,507.11544 h -2.78906 v -19.87891 h 2.78906 z"
           id="path35648" /><path
           d="m 436.46777,498.51583 q 0,-1.50391 -0.77929,-2.32422 -0.7793,-0.82031 -2.1875,-0.82031 -1.29883,0 -2.00977,0.79296 -0.71094,0.79297 -0.71094,2.24219 l -0.56054,-2.73437 q 0.66992,-1.40821 1.76367,-2.17383 1.10742,-0.7793 2.43359,-0.7793 1.53125,0 2.61133,0.6836 1.09375,0.66992 1.6543,1.96875 0.57422,1.29882 0.57422,3.13085 v 8.61329 h -2.78907 z m -16.95312,-5.5918 h 2.78906 v 14.19141 h -2.78906 z m 8.47656,5.5918 q 0,-1.50391 -0.73828,-2.32422 -0.73828,-0.82031 -2.0918,-0.82031 -1.36718,0 -2.11914,0.7246 -0.73828,0.72461 -0.73828,2.03711 l -0.28711,-2.73437 q 0.65625,-1.28516 1.70899,-1.98242 1.0664,-0.69727 2.35156,-0.69727 1.49023,0 2.54297,0.6836 1.05273,0.66992 1.59961,1.96875 0.56054,1.29882 0.56054,3.13085 v 8.61329 h -2.78906 z"
           id="path35645" /><path
           d="m 451.50684,498.11934 q 0,-1.39453 -0.75196,-2.16015 -0.73828,-0.7793 -2.10547,-0.7793 -0.84765,0 -1.66796,0.25976 -0.80665,0.25977 -1.43555,0.72461 l -2.03711,-1.39453 q 0.80664,-0.9707 2.11914,-1.5039 1.32617,-0.54688 2.93945,-0.54688 1.76367,0 3.02149,0.62891 1.25781,0.61523 1.91406,1.80469 0.65625,1.17578 0.65625,2.84375 v 9.11914 h -2.65234 z m -3.47266,9.20117 q -2.625,0 -3.92383,-1.08007 -1.29883,-1.09375 -1.29883,-3.3086 0,-2.10547 1.18946,-3.1582 1.18945,-1.05274 3.5957,-1.05274 h 4.0332 l 0.19141,2.24219 h -4.21094 q -1.09375,0 -1.64062,0.49219 -0.53321,0.47852 -0.53321,1.47656 0,1.08008 0.71094,1.59961 0.72461,0.51953 2.1875,0.51953 1.59961,0 2.37891,-0.34179 0.79297,-0.3418 0.79297,-1.06641 l 0.28711,1.99609 q -0.36915,0.57422 -0.91602,0.94336 -0.5332,0.36914 -1.24414,0.54688 -0.71094,0.1914 -1.59961,0.1914 z"
           id="path35642" /><path
           d="m 463.15527,512.88497 q -1.59961,0 -2.87109,-0.60157 -1.25781,-0.58789 -1.95508,-1.66796 v 0 l 1.88672,-1.70899 v 0 q 0.54688,0.75195 1.29883,1.16211 0.76562,0.41016 1.59961,0.41016 1.59961,0 2.47461,-0.88867 0.875,-0.875 0.875,-2.48829 v -14.17773 h 2.78906 v 13.76758 q 0,1.95508 -0.72461,3.34961 -0.71094,1.39453 -2.07812,2.11914 -1.36719,0.72461 -3.29493,0.72461 z m -0.25976,-5.52344 q -1.5586,0 -2.66602,-0.66992 -1.09375,-0.6836 -1.66797,-1.98242 -0.57422,-1.29883 -0.57422,-3.11719 v -3.13086 q 0,-1.83203 0.56055,-3.13086 0.56055,-1.29883 1.62695,-1.96875 1.08008,-0.68359 2.58399,-0.68359 1.25781,0 2.29687,0.65625 1.05274,0.65625 1.69532,1.8457 l -0.28711,2.89844 q 0,-0.90235 -0.32813,-1.54493 -0.32812,-0.64257 -0.95703,-0.9707 -0.61523,-0.3418 -1.50391,-0.3418 -1.38085,0 -2.14648,0.86133 -0.75195,0.86133 -0.75195,2.41992 v 3.08985 q 0,1.54492 0.75195,2.39258 0.76563,0.83398 2.14648,0.83398 0.88868,0 1.50391,-0.3418 0.62891,-0.35546 0.95703,-1.01171 0.32813,-0.65625 0.32813,-1.57227 l 0.1914,2.99414 q -0.42382,1.05273 -1.39453,1.76367 -0.95703,0.71094 -2.36523,0.71094 z"
           id="path35639" /><path
           d="m 479.30176,507.32051 q -1.96875,0 -3.36328,-0.73828 -1.39453,-0.73828 -2.13282,-2.16015 -0.72461,-1.43555 -0.72461,-3.45899 v -1.59961 q 0,-2.10547 0.69727,-3.5957 0.71094,-1.49023 2.05078,-2.26953 1.33985,-0.7793 3.22656,-0.7793 1.77735,0 3.03516,0.88867 1.25781,0.88868 1.91406,2.57032 0.66992,1.68164 0.66992,4.0332 v 0.92969 h -9.57031 v -2.24219 h 6.91797 v 0 q -0.12305,-1.73633 -0.90234,-2.69336 -0.76563,-0.9707 -2.06446,-0.9707 -1.58593,0 -2.46093,1.03906 -0.86133,1.03906 -0.86133,2.93945 v 1.80469 q 0,1.76367 0.92969,2.70703 0.92968,0.94336 2.63867,0.94336 0.84765,0 1.68164,-0.3418 0.83398,-0.34179 1.49023,-0.95703 v 0 l 1.83203,1.83203 v 0 q -1.05273,1.01172 -2.36523,1.57227 -1.3125,0.54687 -2.63867,0.54687 z"
           id="path35636" /></g></g></g></svg>
